<svg width="33" height="33" viewBox="0 0 33 33" fill="none" xmlns="http://www.w3.org/2000/svg">
<rect x="0.5" y="0.5" width="32" height="32" rx="16" stroke="#605F54"/>
<path d="M13.5342 10.4H17.9082C18.8982 10.4 19.5642 10.4 19.9242 9.68H20.1942L19.5822 12.02H13.9122L13.5162 15.854C13.8582 15.476 14.7762 14.63 16.3242 14.63C18.3042 14.63 20.4642 15.98 20.4642 18.95C20.4642 21.218 18.8442 23.27 16.1442 23.27C13.8042 23.27 12.5442 21.668 12.5442 20.246C12.5442 19.004 13.1022 18.5 13.7322 18.5C14.2902 18.5 14.7042 18.896 14.7042 19.436C14.7042 20.39 13.7142 20.3 13.7142 21.11C13.7142 21.83 14.5242 22.73 16.0542 22.73C17.6742 22.73 18.6642 21.56 18.6642 19.04C18.6642 16.7 17.6022 15.35 15.7842 15.35C14.1462 15.35 13.4262 16.7 13.4262 16.7L12.8862 16.61L13.5342 10.4Z" fill="#605F54"/>
</svg>
