<svg width="50" height="50" viewBox="0 0 50 50" fill="none" xmlns="http://www.w3.org/2000/svg">
<g clip-path="url(#clip0_892_2983)">
<rect x="0.5" y="0.5" width="49" height="49" stroke="#2F2F2F"/>
<path d="M27.8646 39.8437H39.8437V17.1875L27.8646 10.1562V16.4062M27.8646 39.8437H17.9687M27.8646 39.8437V36.7187M17.9687 39.8437H10.1562V28.3854L11.7187 26.8229H17.9687M17.9687 39.8437V26.8229M27.8646 16.4062H23.1771L17.9687 20.5729V26.8229M27.8646 16.4062V22.1354M20.3125 22.1354H27.8646M27.8646 22.1354V24.7396M20.3125 24.7396H27.8646M27.8646 24.7396V27.0833M20.3125 27.0833H27.8646M27.8646 27.0833V29.6875M20.3125 29.6875H27.8646M27.8646 29.6875V32.0312M27.8646 32.0312H20.3125M27.8646 32.0312V34.375M20.3125 34.375H27.8646M27.8646 34.375V36.7187M20.3125 36.7187H27.8646M31.25 32.0312H33.0729V36.1979H31.25V32.0312ZM34.6354 32.0312V36.1979H36.4583V32.0312H34.6354ZM31.25 25H33.0729V29.1667H31.25V25ZM34.6354 25V29.1667H36.4583V25H34.6354ZM31.25 17.9687H33.0729V22.1354H31.25V17.9687ZM34.6354 17.9687V22.1354H36.4583V17.9687H34.6354ZM12.2396 29.4271H13.8021V30.9896H12.2396V29.4271ZM14.8437 29.4271H16.4062V30.9896H14.8437V29.4271ZM12.2396 32.8125H13.8021V34.375H12.2396V32.8125ZM14.8437 32.8125H16.4062V34.375H14.8437V32.8125ZM12.2396 36.1979H13.8021V37.7604H12.2396V36.1979ZM14.8437 36.1979H16.4062V37.7604H14.8437V36.1979Z" stroke="#2F2F2F"/>
</g>
<defs>
<clipPath id="clip0_892_2983">
<rect width="50" height="50" fill="white"/>
</clipPath>
</defs>
</svg>
