<svg width="108" height="136" viewBox="0 0 108 136" fill="none" xmlns="http://www.w3.org/2000/svg">
<g clip-path="url(#clip0_383_8067)">
<path fill-rule="evenodd" clip-rule="evenodd" d="M29.7112 25.7027V50.1006L22.8448 58.0099L15.9785 50.1006V25.7027V24.6481H19.2977V25.7027H21.1781V24.6481H24.4973V25.7027H26.3777V24.6481H29.7112V25.7027ZM26.0216 30.4198H27.2325V32.6715H26.0216V30.4198ZM18.4572 30.4198H19.6681V32.6715H18.4572V30.4198ZM22.2323 30.4198H23.4431V32.6715H22.2323V30.4198ZM23.1725 15.9692V23.3513H22.5029V15.9692H23.1725Z" fill="#605F54"/>
<path d="M25.3369 70.3652C25.8925 70.3652 26.4338 70.4792 26.9182 70.6929C27.4168 70.9209 27.8442 71.2202 28.2145 71.605C28.5706 71.9755 28.8698 72.4316 29.0835 72.9304C29.2971 73.4434 29.3969 73.985 29.3969 74.5692C29.3969 75.1535 29.2971 75.695 29.0978 76.2081C28.884 76.7069 28.5991 77.1487 28.243 77.5335C27.8726 77.904 27.4453 78.2033 26.9467 78.4313C26.4481 78.6593 25.921 78.7591 25.3369 78.7591H22.4023V70.3652H25.3369ZM25.1945 77.6902C25.6218 77.6902 26.0207 77.6047 26.3768 77.4337C26.7329 77.2769 27.0463 77.0489 27.3028 76.7639C27.5592 76.4789 27.7729 76.1511 27.9153 75.7806C28.0578 75.3958 28.129 74.9968 28.129 74.5692C28.129 74.1417 28.0578 73.7285 27.9153 73.3579C27.7729 72.9731 27.5592 72.6453 27.3028 72.3603C27.0321 72.0753 26.7187 71.8473 26.3626 71.6905C26.0065 71.5195 25.6218 71.434 25.1945 71.434H23.6275V77.6902H25.1945ZM33.2574 78.7591V70.3652H34.4968V78.7591H33.2574ZM38.3573 78.7591L41.7762 70.3509L45.2094 78.7591H43.9558L43.6993 78.0893H39.8673L39.5966 78.7591H38.3573ZM40.2804 77.0061H43.2862L41.7762 73.1583L40.2804 77.0061ZM53.372 76.1511L56.1356 70.3652L57.7027 78.7733H56.4491L55.637 74.1132L53.372 78.93L51.1355 74.1132L50.3235 78.7733H49.0699L50.6226 70.3652L53.372 76.1511ZM65.7371 70.3224C66.3211 70.3224 66.8625 70.4364 67.3753 70.6644C67.8882 70.8782 68.3441 71.1775 68.7144 71.5622C69.099 71.947 69.3982 72.4031 69.6119 72.9161C69.8255 73.4292 69.9395 73.985 69.9395 74.5692C69.9395 75.1535 69.8255 75.695 69.6119 76.2081C69.3982 76.7211 69.099 77.163 68.7144 77.5478C68.3441 77.9325 67.8882 78.2318 67.3753 78.4598C66.8625 78.6735 66.3211 78.7876 65.7371 78.7876C65.1673 78.7876 64.6117 78.6735 64.1131 78.4598C63.6003 78.2318 63.1587 77.9325 62.7741 77.5478C62.4037 77.163 62.1045 76.7211 61.8908 76.2081C61.6629 75.695 61.5632 75.1535 61.5632 74.5692C61.5632 73.985 61.6629 73.4292 61.8908 72.9161C62.1045 72.4031 62.4037 71.947 62.7741 71.5622C63.1587 71.1775 63.6003 70.8782 64.1131 70.6644C64.6117 70.4364 65.1673 70.3224 65.7371 70.3224ZM65.7371 77.6047C66.136 77.6047 66.5206 77.5192 66.8767 77.3624C67.2328 77.2057 67.5321 76.9919 67.8027 76.7211C68.0591 76.4361 68.2728 76.1226 68.4295 75.7521C68.5719 75.3815 68.6574 74.9826 68.6574 74.5692C68.6574 74.1559 68.5719 73.7569 68.4295 73.3864C68.2728 73.0016 68.0591 72.6881 67.8027 72.4031C67.5321 72.1323 67.2328 71.9043 66.8767 71.7475C66.5206 71.5907 66.136 71.5053 65.7371 71.5053C65.3383 71.5053 64.9679 71.5907 64.6259 71.7475C64.2698 71.9043 63.9564 72.1323 63.7 72.4031C63.4293 72.6881 63.2299 73.0016 63.0732 73.3864C62.9165 73.7569 62.8453 74.1559 62.8453 74.5692C62.8453 74.9826 62.9165 75.3815 63.0732 75.7521C63.2299 76.1226 63.4293 76.4361 63.7 76.7211C63.9564 76.9919 64.2698 77.2057 64.6259 77.3624C64.9679 77.5192 65.3383 77.6047 65.7371 77.6047ZM74.9539 73.4861V78.7876H73.8001V70.2227L79.2276 76.7211V70.3794H80.3814V78.7876H79.2703L74.9539 73.4861ZM87.1908 70.3652C87.7463 70.3652 88.2735 70.4792 88.7721 70.6929C89.2707 70.9209 89.698 71.2202 90.0542 71.605C90.4245 71.9755 90.7237 72.4316 90.9374 72.9304C91.151 73.4434 91.2508 73.985 91.2508 74.5692C91.2508 75.1535 91.151 75.695 90.9374 76.2081C90.7379 76.7069 90.453 77.1487 90.0827 77.5335C89.7265 77.904 89.2991 78.2033 88.8006 78.4313C88.302 78.6593 87.7606 78.7591 87.1908 78.7591H84.2562V70.3652H87.1908ZM87.0484 77.6902C87.4757 77.6902 87.8746 77.6047 88.2307 77.4337C88.5868 77.2769 88.9002 77.0489 89.1567 76.7639C89.4131 76.4789 89.6125 76.1511 89.7692 75.7806C89.9117 75.3958 89.9829 74.9968 89.9829 74.5692C89.9829 74.1417 89.9117 73.7285 89.7692 73.3579C89.6125 72.9731 89.4131 72.6453 89.1567 72.3603C88.886 72.0753 88.5726 71.8473 88.2165 71.6905C87.8603 71.5195 87.4615 71.434 87.0484 71.434H85.4813V77.6902H87.0484ZM26.5478 92.7536C27.0321 92.7536 27.4879 92.6396 27.9011 92.3973C28.3 92.1693 28.6419 91.8558 28.8983 91.471L29.8955 92.2121C29.5109 92.7394 29.0265 93.1527 28.4567 93.4519C27.8726 93.7512 27.2458 93.9079 26.5478 93.9079C25.978 93.9079 25.4366 93.794 24.938 93.5801C24.4252 93.3521 23.9836 93.0529 23.6132 92.6823C23.2428 92.2976 22.9437 91.8558 22.73 91.3427C22.5021 90.844 22.4023 90.3025 22.4023 89.7181C22.4023 89.1338 22.5021 88.5923 22.73 88.0793C22.9437 87.5662 23.2428 87.1245 23.6132 86.7539C23.9836 86.3691 24.4252 86.0699 24.938 85.8561C25.4366 85.628 25.978 85.5141 26.5478 85.5141C27.2458 85.5141 27.8726 85.6708 28.4567 85.9843C29.0265 86.2836 29.5109 86.6969 29.8955 87.2099L28.8983 87.9653C28.6419 87.5662 28.3 87.2669 27.9011 87.0247C27.4879 86.7967 27.0321 86.6827 26.5478 86.6827C26.1489 86.6827 25.7785 86.7539 25.4366 86.9249C25.0805 87.0817 24.7814 87.2954 24.5249 87.5662C24.2543 87.8512 24.0548 88.1647 23.8981 88.5353C23.7414 88.9058 23.6702 89.2906 23.6702 89.7181C23.6702 90.1314 23.7414 90.5305 23.8981 90.901C24.0548 91.2573 24.2543 91.5851 24.5249 91.8558C24.7814 92.1408 25.0805 92.3546 25.4366 92.5114C25.7785 92.6681 26.1489 92.7536 26.5478 92.7536ZM33.756 93.8937L37.1892 85.4998L40.6081 93.8937H39.3545L39.1123 93.2381H35.266L35.0096 93.8937H33.756ZM35.6791 92.1551H38.6849L37.1892 88.3073L35.6791 92.1551ZM49.0841 89.7324C49.1269 89.7609 49.1839 89.8036 49.2266 89.8606C49.2693 89.9034 49.312 89.9604 49.3548 90.0032C49.5258 90.2169 49.6682 90.4592 49.7679 90.7299C49.8676 90.9865 49.9104 91.2715 49.9104 91.5566C49.9104 91.6278 49.9104 91.6848 49.9104 91.7275C49.8819 92.1551 49.7536 92.5399 49.5115 92.8819C49.2978 93.1954 49.0272 93.4519 48.6853 93.6372C48.3576 93.8225 47.9729 93.9222 47.5598 93.9222H46.8048C46.3917 93.9222 46.0214 93.8225 45.6937 93.6372C45.3518 93.4519 45.0811 93.1954 44.8675 92.8819C44.7963 92.7821 44.7393 92.6823 44.6823 92.5541L45.7507 91.7275C45.7649 91.8843 45.8219 92.0125 45.8931 92.1408C45.9644 92.2691 46.0498 92.3831 46.1638 92.4686C46.2635 92.5684 46.3917 92.6396 46.52 92.6966C46.6624 92.7536 46.8048 92.7821 46.9616 92.7821H47.4174C47.7308 92.7821 48.0014 92.6681 48.2294 92.4686C48.4573 92.2691 48.5998 92.0125 48.6425 91.7275C48.6425 91.6848 48.6425 91.6562 48.6425 91.6278C48.6568 91.5993 48.6568 91.5708 48.6568 91.5423C48.6568 91.3712 48.6283 91.2145 48.557 91.072C48.5 90.9295 48.4146 90.8012 48.3149 90.6872C48.2009 90.5732 48.0727 90.4877 47.9302 90.4164C47.7878 90.3452 47.6311 90.3025 47.4744 90.3025H46.8191H46.7763C46.4915 90.2882 46.2208 90.2312 45.9786 90.1314C45.7365 90.0317 45.5085 89.8892 45.3091 89.7181C45.1951 89.6327 45.1096 89.5471 45.0384 89.4331C44.8532 89.2193 44.725 88.9771 44.6253 88.7063C44.5256 88.4498 44.4686 88.1647 44.4686 87.8797V87.723C44.5113 87.2812 44.6395 86.8964 44.8675 86.5686C45.0811 86.2408 45.366 85.9843 45.6937 85.7991C46.0356 85.6138 46.406 85.5141 46.8191 85.5141H47.5598C47.9729 85.5141 48.3576 85.6138 48.6995 85.7991C49.0414 85.9843 49.312 86.2408 49.5258 86.5686C49.5543 86.5971 49.5685 86.6399 49.597 86.6827C49.6255 86.7397 49.6539 86.7824 49.6682 86.811L48.6283 87.6232C48.557 87.3525 48.4146 87.1245 48.2009 86.9392C47.9729 86.7539 47.7166 86.6684 47.4317 86.6684H46.9758C46.8191 86.6684 46.6766 86.6969 46.5342 86.7397C46.3917 86.7967 46.2635 86.8679 46.1638 86.9677C46.0498 87.0675 45.9644 87.1814 45.8931 87.3097C45.8219 87.438 45.7649 87.5805 45.7507 87.723C45.7365 87.7515 45.7365 87.78 45.7365 87.8085C45.7365 87.837 45.7365 87.8797 45.7365 87.9082C45.7365 88.065 45.7649 88.2218 45.8219 88.3786C45.8789 88.521 45.9644 88.6493 46.0783 88.7633C46.1781 88.8631 46.3062 88.9628 46.4487 89.0341C46.6054 89.0911 46.7478 89.1338 46.9188 89.1481H47.5598H47.6168C47.9018 89.1481 48.1582 89.2051 48.4146 89.3049C48.6568 89.4046 48.8847 89.5471 49.0841 89.7324ZM53.7709 86.6827V85.5141H59.1414V86.6827H57.0616V93.8937H55.8507V86.6827H53.7709ZM64.227 85.5141V92.7251H67.6602V93.9222H63.0019V85.5141H64.227ZM72.7316 90.6872V92.6823H76.464V93.8937H71.5207V85.5141H76.3927V86.6969H72.7316V88.0223V88.7063V89.5471H76.0224V90.6872H72.7316Z" fill="#605F54"/>
<path d="M48.0727 101.331H22.4023V100.618H48.0727V101.331Z" fill="#D0B16F"/>
<path d="M23.7984 108.102C24.0691 108.102 24.3255 108.159 24.5534 108.259C24.7956 108.359 24.995 108.516 25.166 108.687C25.3511 108.872 25.4794 109.086 25.5933 109.328C25.6931 109.57 25.7358 109.826 25.7358 110.111C25.7358 110.382 25.6931 110.639 25.5933 110.881C25.4936 111.124 25.3654 111.337 25.1802 111.523C25.0092 111.708 24.8099 111.851 24.5676 111.95C24.3397 112.065 24.0833 112.107 23.7984 112.107H22.4023V108.102H23.7984ZM23.7272 111.594C23.9409 111.594 24.126 111.551 24.297 111.48C24.4679 111.394 24.6104 111.295 24.7386 111.152C24.8668 111.024 24.9665 110.867 25.0235 110.682C25.0947 110.496 25.1375 110.311 25.1375 110.111C25.1375 109.898 25.0947 109.713 25.0235 109.528C24.9665 109.343 24.8668 109.186 24.7386 109.058C24.6104 108.915 24.4679 108.815 24.297 108.73C24.126 108.658 23.9409 108.616 23.7272 108.616H22.9864V111.594H23.7272ZM28.1718 110.568V111.523H29.9525V112.093H27.5877V108.102H29.9097V108.673H28.1718V109.3V109.627V110.026H29.7388V110.568H28.1718ZM33.4283 110.625L34.4398 108.102H35.0524L33.4283 112.136L31.7901 108.102H32.4027L33.4283 110.625ZM37.4741 110.568V111.523H39.2548V112.093H36.89V108.102H39.2263V108.673H37.4741V109.3V109.627V110.026H39.041V110.568H37.4741ZM41.6907 108.102V111.537H43.3289V112.122H41.1066V108.102H41.6907ZM47.161 108.088C47.4459 108.088 47.7023 108.131 47.9444 108.245C48.1867 108.345 48.4003 108.487 48.5855 108.673C48.7565 108.858 48.8989 109.072 49.0129 109.314C49.1126 109.57 49.1696 109.826 49.1696 110.111C49.1696 110.382 49.1126 110.653 49.0129 110.896C48.8989 111.138 48.7565 111.352 48.5855 111.537C48.4003 111.708 48.1867 111.851 47.9444 111.965C47.7023 112.065 47.4459 112.122 47.161 112.122C46.8903 112.122 46.6197 112.065 46.3775 111.965C46.1353 111.851 45.9359 111.708 45.7507 111.537C45.5655 111.352 45.423 111.138 45.3234 110.896C45.2236 110.653 45.1666 110.382 45.1666 110.111C45.1666 109.826 45.2236 109.57 45.3234 109.314C45.423 109.072 45.5655 108.858 45.7507 108.673C45.9359 108.487 46.1353 108.345 46.3775 108.245C46.6197 108.131 46.8903 108.088 47.161 108.088ZM47.161 111.551C47.3462 111.551 47.5313 111.523 47.7023 111.437C47.8733 111.366 48.0157 111.266 48.1439 111.138C48.2722 110.995 48.3718 110.853 48.4431 110.667C48.5143 110.496 48.557 110.311 48.557 110.111C48.557 109.912 48.5143 109.713 48.4431 109.542C48.3718 109.357 48.2722 109.214 48.1439 109.072C48.0157 108.944 47.8733 108.844 47.7023 108.758C47.5313 108.687 47.3462 108.644 47.161 108.644C46.9758 108.644 46.7906 108.687 46.6197 108.758C46.463 108.844 46.3062 108.944 46.1923 109.072C46.0641 109.214 45.9644 109.357 45.8931 109.542C45.8219 109.713 45.7792 109.912 45.7792 110.111C45.7792 110.311 45.8219 110.496 45.8931 110.667C45.9644 110.853 46.0641 110.995 46.1923 111.138C46.3062 111.266 46.463 111.366 46.6197 111.437C46.7906 111.523 46.9758 111.551 47.161 111.551ZM53.8137 109.371C53.8137 109.385 53.8137 109.414 53.8279 109.442C53.8279 109.456 53.8279 109.485 53.8279 109.513C53.8279 109.542 53.8279 109.57 53.8279 109.584C53.8137 109.613 53.8137 109.627 53.8137 109.656L53.7994 109.784C53.7994 109.798 53.7852 109.798 53.7852 109.812C53.7852 109.826 53.7852 109.841 53.7852 109.855C53.7709 109.869 53.7709 109.898 53.7709 109.912C53.7139 110.083 53.6427 110.226 53.5429 110.354C53.4433 110.496 53.315 110.596 53.1726 110.696C53.0586 110.767 52.9162 110.824 52.7737 110.867C52.6312 110.91 52.4746 110.924 52.3036 110.924H51.5913V112.122H51.0072V108.088H52.3036C52.6312 108.088 52.9304 108.174 53.1726 108.331C53.315 108.416 53.4433 108.53 53.5429 108.658C53.6427 108.801 53.7139 108.944 53.7709 109.1C53.7852 109.143 53.7852 109.186 53.7852 109.214C53.7852 109.229 53.7994 109.229 53.7994 109.229C53.7994 109.257 53.7994 109.271 53.7994 109.3C53.8137 109.314 53.8137 109.343 53.8137 109.357V109.371ZM52.3748 110.411C52.5031 110.411 52.617 110.382 52.7167 110.34C52.8164 110.283 52.9019 110.226 52.9732 110.14C53.0444 110.054 53.1013 109.955 53.1441 109.855C53.1868 109.741 53.2153 109.627 53.2153 109.513C53.2153 109.399 53.1868 109.286 53.1441 109.172C53.1013 109.072 53.0444 108.972 52.9732 108.887C52.9019 108.801 52.8164 108.73 52.7167 108.687C52.617 108.63 52.5031 108.616 52.3748 108.616H51.6056V110.411H52.3748ZM57.7311 110.867L59.0417 108.102L59.7825 112.122H59.1842L58.7995 109.883L57.7311 112.193L56.6485 109.883L56.2639 112.122H55.6655L56.4063 108.102L57.7311 110.867ZM62.2042 110.568V111.523H63.9992V112.093H61.6344V108.102H63.9564V108.673H62.2042V109.3V109.627V110.026H63.7854V110.568H62.2042ZM66.3924 109.584V112.122H65.8368V108.031L68.4294 111.138V108.102H68.9851V112.122H68.4437L66.3924 109.584ZM70.8228 108.658V108.102H73.3869V108.658H72.3897V112.107H71.8199V108.658H70.8228ZM24.3825 119.403C24.6104 119.403 24.8241 119.346 25.0235 119.232C25.223 119.118 25.3796 118.976 25.4936 118.791L25.978 119.147C25.7927 119.389 25.5648 119.588 25.2942 119.731C25.0092 119.874 24.7101 119.959 24.3825 119.959C24.1118 119.959 23.8554 119.902 23.6132 119.788C23.371 119.688 23.1574 119.546 22.9864 119.36C22.8012 119.19 22.6588 118.976 22.559 118.734C22.4451 118.492 22.4023 118.235 22.4023 117.95C22.4023 117.679 22.4451 117.408 22.559 117.166C22.6588 116.924 22.8012 116.71 22.9864 116.539C23.1574 116.353 23.371 116.211 23.6132 116.111C23.8554 115.997 24.1118 115.955 24.3825 115.955C24.7101 115.955 25.0092 116.026 25.2942 116.168C25.5648 116.311 25.7927 116.51 25.978 116.753L25.4936 117.109C25.3796 116.924 25.223 116.781 25.0235 116.667C24.8241 116.553 24.6104 116.496 24.3825 116.496C24.183 116.496 24.0121 116.539 23.8411 116.61C23.6844 116.696 23.542 116.795 23.4138 116.924C23.2856 117.052 23.1858 117.209 23.1146 117.394C23.0434 117.565 23.0007 117.75 23.0007 117.95C23.0007 118.15 23.0434 118.335 23.1146 118.52C23.1858 118.691 23.2856 118.848 23.4138 118.976C23.542 119.104 23.6844 119.204 23.8411 119.289C24.0121 119.36 24.183 119.403 24.3825 119.403ZM29.81 115.926C30.0949 115.926 30.3514 115.983 30.5935 116.083C30.8499 116.197 31.0493 116.339 31.2346 116.51C31.4197 116.696 31.5622 116.909 31.6619 117.166C31.7616 117.408 31.8186 117.665 31.8186 117.95C31.8186 118.235 31.7616 118.492 31.6619 118.734C31.5622 118.976 31.4197 119.19 31.2346 119.375C31.0493 119.56 30.8499 119.702 30.5935 119.802C30.3514 119.916 30.0949 119.959 29.81 119.959C29.5394 119.959 29.2829 119.916 29.0408 119.802C28.7985 119.702 28.5849 119.56 28.3997 119.375C28.2288 119.19 28.0863 118.976 27.9723 118.734C27.8726 118.492 27.8157 118.235 27.8157 117.95C27.8157 117.665 27.8726 117.408 27.9723 117.166C28.0863 116.909 28.2288 116.696 28.3997 116.51C28.5849 116.339 28.7985 116.197 29.0408 116.083C29.2829 115.983 29.5394 115.926 29.81 115.926ZM29.81 119.403C30.0094 119.403 30.1804 119.36 30.3514 119.289C30.5222 119.204 30.679 119.104 30.793 118.976C30.9211 118.848 31.0208 118.691 31.0921 118.52C31.1633 118.335 31.2061 118.15 31.2061 117.95C31.2061 117.75 31.1633 117.565 31.0921 117.38C31.0208 117.209 30.9211 117.052 30.793 116.924C30.679 116.781 30.5222 116.681 30.3514 116.61C30.1804 116.524 30.0094 116.496 29.81 116.496C29.6248 116.496 29.4539 116.524 29.2829 116.61C29.112 116.681 28.9695 116.781 28.8413 116.924C28.7131 117.052 28.6134 117.209 28.5422 117.38C28.4709 117.565 28.4282 117.75 28.4282 117.95C28.4282 118.15 28.4709 118.335 28.5422 118.52C28.6134 118.691 28.7131 118.848 28.8413 118.976C28.9695 119.104 29.112 119.204 29.2829 119.289C29.4539 119.36 29.6248 119.403 29.81 119.403ZM35.7219 118.706L37.0324 115.94L37.7874 119.959H37.1892L36.7903 117.736L35.7219 120.03L34.6535 117.736L34.2546 119.959H33.6563L34.4113 115.94L35.7219 118.706ZM42.4315 117.209C42.4315 117.237 42.4315 117.252 42.4315 117.28C42.4457 117.294 42.4457 117.323 42.4457 117.351V117.366C42.4457 117.38 42.4457 117.408 42.4315 117.437C42.4315 117.451 42.4315 117.48 42.4315 117.494V117.508L42.4172 117.636L42.403 117.651C42.403 117.679 42.403 117.693 42.403 117.708C42.3887 117.722 42.3887 117.736 42.3745 117.75C42.3318 117.922 42.2606 118.078 42.1608 118.207C42.0468 118.335 41.9329 118.449 41.7905 118.535C41.6765 118.606 41.534 118.663 41.3916 118.706C41.2491 118.748 41.0924 118.777 40.9215 118.777H40.2092V119.959H39.6251V115.94H40.9215C41.2491 115.94 41.5482 116.012 41.7905 116.168C41.9329 116.268 42.0468 116.368 42.1608 116.51C42.2606 116.639 42.3318 116.781 42.3745 116.952C42.3887 116.995 42.403 117.023 42.403 117.052C42.403 117.066 42.4172 117.066 42.4172 117.08C42.4172 117.095 42.4172 117.123 42.4172 117.137C42.4172 117.166 42.4315 117.18 42.4315 117.194V117.209ZM40.9927 118.264C41.1209 118.264 41.2348 118.235 41.3346 118.178C41.4343 118.135 41.5198 118.064 41.591 117.979C41.6622 117.893 41.7192 117.793 41.762 117.693C41.8047 117.579 41.8332 117.465 41.8332 117.351C41.8332 117.237 41.8047 117.123 41.762 117.023C41.7192 116.909 41.6622 116.81 41.591 116.724C41.5198 116.653 41.4343 116.581 41.3346 116.524C41.2348 116.482 41.1209 116.453 40.9927 116.453H40.2092V118.264H40.9927ZM44.2834 119.945L45.9216 115.94L47.5598 119.945H46.9616L46.8333 119.631H45.0099L44.8817 119.945H44.2834ZM45.2094 119.119H46.6339L45.9216 117.28L45.2094 119.119ZM49.9531 117.437V119.959H49.3975V115.884L51.9902 118.976V115.955H52.5458V119.959H52.0045L49.9531 117.437ZM56.8052 115.94H57.4605L56.2211 118.649V119.959H55.6228V118.649L54.3834 115.94H55.0388L55.922 118.078L56.8052 115.94Z" fill="#605F54"/>
<path fill-rule="evenodd" clip-rule="evenodd" d="M17.5147 50.9271C17.8851 51.0412 18.3124 51.1266 18.811 51.2121C18.982 51.2406 19.1672 51.2692 19.3666 51.2834L21.6174 55.6727L17.5147 50.9271ZM24.381 15.9692L29.3527 18.1639V18.9192H24.381V15.9692ZM25.7059 46.8798V41.2364C25.7059 39.6545 24.4238 38.3576 22.8425 38.3576C21.2612 38.3576 19.9649 39.6545 19.9649 41.2364V46.8798C20.1074 46.8371 20.2641 46.7943 20.435 46.7658C21.0476 46.6375 21.9023 46.5663 22.8425 46.5663C23.7684 46.5663 24.6231 46.6375 25.25 46.7658C25.4209 46.7943 25.5776 46.8371 25.7059 46.8798ZM19.4663 47.9771C19.68 48.1197 20.0076 48.2479 20.435 48.3334C20.5205 48.3477 20.6202 48.3619 20.7199 48.3762L19.4663 50.6706C19.2669 50.6421 19.0817 50.6279 18.8965 50.5993C18.113 50.471 17.5004 50.3143 17.1016 50.129L19.4663 47.9771ZM28.5692 50.129C28.1846 50.3143 27.5577 50.471 26.76 50.5993C26.5891 50.6279 26.4039 50.6564 26.2187 50.6706L24.9651 48.3762C25.0648 48.3619 25.1503 48.3477 25.25 48.3334C25.6631 48.2479 25.9907 48.1197 26.2045 47.9771L28.5692 50.129ZM24.0676 55.6727L26.3041 51.2977C26.5036 51.2692 26.6887 51.2406 26.8597 51.2121C27.3583 51.1409 27.7857 51.0412 28.1561 50.9414L24.0676 55.6727ZM24.2955 48.4617C23.8539 48.5187 23.3553 48.5329 22.8425 48.5329C22.3154 48.5329 21.8168 48.5045 21.3752 48.4617L20.1359 50.7419C20.9478 50.8273 21.8738 50.8701 22.8425 50.8701C23.8112 50.8701 24.7229 50.8273 25.5349 50.7419L24.2955 48.4617ZM20.1074 51.3689L22.8425 56.6988L25.5634 51.3689C24.7371 51.4544 23.8112 51.4971 22.8425 51.4971C21.8738 51.4971 20.9336 51.4544 20.1074 51.3689Z" fill="#D0B16F"/>
</g>
<defs>
<clipPath id="clip0_383_8067">
<rect width="76" height="104" fill="white" transform="translate(16 16)"/>
</clipPath>
</defs>
</svg>
