<svg width="108" height="136" viewBox="0 0 108 136" fill="none" xmlns="http://www.w3.org/2000/svg">
<rect width="108" height="136" fill="#FACF73"/>
<g clip-path="url(#clip0_113_2464)">
<path fill-rule="evenodd" clip-rule="evenodd" d="M29.7105 25.7027V50.1006L22.8441 58.0099L15.9778 50.1006V25.7027V24.6481H19.297V25.7027H21.1774V24.6481H24.4966V25.7027H26.377V24.6481H29.7105V25.7027ZM26.0208 30.4198H27.2317V32.6715H26.0208V30.4198ZM18.4565 30.4198H19.6674V32.6715H18.4565V30.4198ZM22.2315 30.4198H23.4424V32.6715H22.2315V30.4198ZM23.1717 15.9692V23.3513H22.5022V15.9692H23.1717Z" fill="#605F54"/>
<path d="M25.3367 70.3652C25.8923 70.3652 26.4335 70.4792 26.9179 70.6929C27.4165 70.9209 27.8439 71.2202 28.2142 71.605C28.5704 71.9755 28.8696 72.4316 29.0832 72.9304C29.2969 73.4434 29.3966 73.985 29.3966 74.5692C29.3966 75.1535 29.2969 75.695 29.0975 76.2081C28.8838 76.7069 28.5988 77.1487 28.2427 77.5335C27.8724 77.904 27.445 78.2033 26.9464 78.4313C26.4478 78.6593 25.9208 78.7591 25.3367 78.7591H22.4021V70.3652H25.3367ZM25.1942 77.6902C25.6215 77.6902 26.0204 77.6047 26.3766 77.4337C26.7327 77.2769 27.0461 77.0489 27.3025 76.7639C27.559 76.4789 27.7726 76.1511 27.9151 75.7806C28.0576 75.3958 28.1288 74.9968 28.1288 74.5692C28.1288 74.1417 28.0576 73.7285 27.9151 73.3579C27.7726 72.9731 27.559 72.6453 27.3025 72.3603C27.0319 72.0753 26.7185 71.8473 26.3624 71.6905C26.0062 71.5195 25.6215 71.434 25.1942 71.434H23.6272V77.6902H25.1942ZM33.2571 78.7591V70.3652H34.4965V78.7591H33.2571ZM38.357 78.7591L41.7759 70.3509L45.2091 78.7591H43.9555L43.6991 78.0893H39.8671L39.5964 78.7591H38.357ZM40.2802 77.0061H43.286L41.7759 73.1583L40.2802 77.0061ZM53.3717 76.1511L56.1354 70.3652L57.7024 78.7733H56.4488L55.6368 74.1132L53.3717 78.93L51.1352 74.1132L50.3232 78.7733H49.0696L50.6224 70.3652L53.3717 76.1511ZM65.7368 70.3224C66.3209 70.3224 66.8623 70.4364 67.3751 70.6644C67.8879 70.8782 68.3438 71.1775 68.7141 71.5622C69.0987 71.947 69.398 72.4031 69.6116 72.9161C69.8253 73.4292 69.9392 73.985 69.9392 74.5692C69.9392 75.1535 69.8253 75.695 69.6116 76.2081C69.398 76.7211 69.0987 77.163 68.7141 77.5478C68.3438 77.9325 67.8879 78.2318 67.3751 78.4598C66.8623 78.6735 66.3209 78.7876 65.7368 78.7876C65.1671 78.7876 64.6115 78.6735 64.1129 78.4598C63.6 78.2318 63.1584 77.9325 62.7738 77.5478C62.4034 77.163 62.1043 76.7211 61.8905 76.2081C61.6627 75.695 61.5629 75.1535 61.5629 74.5692C61.5629 73.985 61.6627 73.4292 61.8905 72.9161C62.1043 72.4031 62.4034 71.947 62.7738 71.5622C63.1584 71.1775 63.6 70.8782 64.1129 70.6644C64.6115 70.4364 65.1671 70.3224 65.7368 70.3224ZM65.7368 77.6047C66.1357 77.6047 66.5203 77.5192 66.8765 77.3624C67.2326 77.2057 67.5318 76.9919 67.8024 76.7211C68.0589 76.4361 68.2725 76.1226 68.4292 75.7521C68.5717 75.3815 68.6572 74.9826 68.6572 74.5692C68.6572 74.1559 68.5717 73.7569 68.4292 73.3864C68.2725 73.0016 68.0589 72.6881 67.8024 72.4031C67.5318 72.1323 67.2326 71.9043 66.8765 71.7475C66.5203 71.5907 66.1357 71.5053 65.7368 71.5053C65.338 71.5053 64.9676 71.5907 64.6257 71.7475C64.2696 71.9043 63.9562 72.1323 63.6997 72.4031C63.4291 72.6881 63.2296 73.0016 63.073 73.3864C62.9163 73.7569 62.845 74.1559 62.845 74.5692C62.845 74.9826 62.9163 75.3815 63.073 75.7521C63.2296 76.1226 63.4291 76.4361 63.6997 76.7211C63.9562 76.9919 64.2696 77.2057 64.6257 77.3624C64.9676 77.5192 65.338 77.6047 65.7368 77.6047ZM74.9537 73.4861V78.7876H73.7998V70.2227L79.2274 76.7211V70.3794H80.3812V78.7876H79.2701L74.9537 73.4861ZM87.1905 70.3652C87.7461 70.3652 88.2732 70.4792 88.7718 70.6929C89.2704 70.9209 89.6977 71.2202 90.0539 71.605C90.4242 71.9755 90.7235 72.4316 90.9371 72.9304C91.1508 73.4434 91.2505 73.985 91.2505 74.5692C91.2505 75.1535 91.1508 75.695 90.9371 76.2081C90.7377 76.7069 90.4527 77.1487 90.0824 77.5335C89.7262 77.904 89.2989 78.2033 88.8003 78.4313C88.3017 78.6593 87.7604 78.7591 87.1905 78.7591H84.256V70.3652H87.1905ZM87.0481 77.6902C87.4754 77.6902 87.8743 77.6047 88.2305 77.4337C88.5866 77.2769 88.9 77.0489 89.1564 76.7639C89.4129 76.4789 89.6122 76.1511 89.769 75.7806C89.9115 75.3958 89.9827 74.9968 89.9827 74.5692C89.9827 74.1417 89.9115 73.7285 89.769 73.3579C89.6122 72.9731 89.4129 72.6453 89.1564 72.3603C88.8858 72.0753 88.5724 71.8473 88.2163 71.6905C87.86 71.5195 87.4612 71.434 87.0481 71.434H85.4811V77.6902H87.0481ZM26.5475 92.7536C27.0319 92.7536 27.4877 92.6396 27.9009 92.3973C28.2997 92.1693 28.6416 91.8558 28.8981 91.471L29.8952 92.2121C29.5106 92.7394 29.0262 93.1527 28.4565 93.4519C27.8724 93.7512 27.2456 93.9079 26.5475 93.9079C25.9777 93.9079 25.4364 93.794 24.9378 93.5801C24.4249 93.3521 23.9833 93.0529 23.613 92.6823C23.2426 92.2976 22.9434 91.8558 22.7297 91.3427C22.5018 90.844 22.4021 90.3025 22.4021 89.7181C22.4021 89.1338 22.5018 88.5923 22.7297 88.0793C22.9434 87.5662 23.2426 87.1245 23.613 86.7539C23.9833 86.3691 24.4249 86.0699 24.9378 85.8561C25.4364 85.628 25.9777 85.5141 26.5475 85.5141C27.2456 85.5141 27.8724 85.6708 28.4565 85.9843C29.0262 86.2836 29.5106 86.6969 29.8952 87.2099L28.8981 87.9653C28.6416 87.5662 28.2997 87.2669 27.9009 87.0247C27.4877 86.7967 27.0319 86.6827 26.5475 86.6827C26.1486 86.6827 25.7783 86.7539 25.4364 86.9249C25.0803 87.0817 24.7811 87.2954 24.5247 87.5662C24.254 87.8512 24.0546 88.1647 23.8979 88.5353C23.7412 88.9058 23.6699 89.2906 23.6699 89.7181C23.6699 90.1314 23.7412 90.5305 23.8979 90.901C24.0546 91.2573 24.254 91.5851 24.5247 91.8558C24.7811 92.1408 25.0803 92.3546 25.4364 92.5114C25.7783 92.6681 26.1486 92.7536 26.5475 92.7536ZM33.7557 93.8937L37.1889 85.4998L40.6078 93.8937H39.3542L39.1121 93.2381H35.2658L35.0093 93.8937H33.7557ZM35.6789 92.1551H38.6847L37.1889 88.3073L35.6789 92.1551ZM49.0838 89.7324C49.1266 89.7609 49.1836 89.8036 49.2263 89.8606C49.2691 89.9034 49.3118 89.9604 49.3546 90.0032C49.5255 90.2169 49.668 90.4592 49.7677 90.7299C49.8674 90.9865 49.9101 91.2715 49.9101 91.5566C49.9101 91.6278 49.9101 91.6848 49.9101 91.7275C49.8816 92.1551 49.7534 92.5399 49.5112 92.8819C49.2976 93.1954 49.0269 93.4519 48.685 93.6372C48.3574 93.8225 47.9727 93.9222 47.5596 93.9222H46.8046C46.3915 93.9222 46.0211 93.8225 45.6934 93.6372C45.3516 93.4519 45.0809 93.1954 44.8672 92.8819C44.796 92.7821 44.739 92.6823 44.6821 92.5541L45.7504 91.7275C45.7647 91.8843 45.8217 92.0125 45.8929 92.1408C45.9642 92.2691 46.0496 92.3831 46.1635 92.4686C46.2633 92.5684 46.3915 92.6396 46.5197 92.6966C46.6621 92.7536 46.8046 92.7821 46.9613 92.7821H47.4171C47.7306 92.7821 48.0012 92.6681 48.2291 92.4686C48.4571 92.2691 48.5995 92.0125 48.6422 91.7275C48.6422 91.6848 48.6422 91.6562 48.6422 91.6278C48.6565 91.5993 48.6565 91.5708 48.6565 91.5423C48.6565 91.3712 48.628 91.2145 48.5568 91.072C48.4998 90.9295 48.4144 90.8012 48.3146 90.6872C48.2006 90.5732 48.0725 90.4877 47.93 90.4164C47.7875 90.3452 47.6309 90.3025 47.4741 90.3025H46.8189H46.7761C46.4912 90.2882 46.2205 90.2312 45.9784 90.1314C45.7362 90.0317 45.5083 89.8892 45.3088 89.7181C45.1948 89.6327 45.1094 89.5471 45.0382 89.4331C44.8529 89.2193 44.7248 88.9771 44.6251 88.7063C44.5253 88.4498 44.4683 88.1647 44.4683 87.8797V87.723C44.5111 87.2812 44.6393 86.8964 44.8672 86.5686C45.0809 86.2408 45.3658 85.9843 45.6934 85.7991C46.0353 85.6138 46.4058 85.5141 46.8189 85.5141H47.5596C47.9727 85.5141 48.3574 85.6138 48.6992 85.7991C49.0411 85.9843 49.3118 86.2408 49.5255 86.5686C49.554 86.5971 49.5682 86.6399 49.5967 86.6827C49.6252 86.7397 49.6537 86.7824 49.668 86.811L48.628 87.6232C48.5568 87.3525 48.4144 87.1245 48.2006 86.9392C47.9727 86.7539 47.7163 86.6684 47.4314 86.6684H46.9755C46.8189 86.6684 46.6764 86.6969 46.5339 86.7397C46.3915 86.7967 46.2633 86.8679 46.1635 86.9677C46.0496 87.0675 45.9642 87.1814 45.8929 87.3097C45.8217 87.438 45.7647 87.5805 45.7504 87.723C45.7362 87.7515 45.7362 87.78 45.7362 87.8085C45.7362 87.837 45.7362 87.8797 45.7362 87.9082C45.7362 88.065 45.7647 88.2218 45.8217 88.3786C45.8787 88.521 45.9642 88.6493 46.078 88.7633C46.1778 88.8631 46.306 88.9628 46.4485 89.0341C46.6052 89.0911 46.7476 89.1338 46.9185 89.1481H47.5596H47.6166C47.9015 89.1481 48.1579 89.2051 48.4144 89.3049C48.6565 89.4046 48.8845 89.5471 49.0838 89.7324ZM53.7706 86.6827V85.5141H59.1412V86.6827H57.0614V93.8937H55.8505V86.6827H53.7706ZM64.2268 85.5141V92.7251H67.66V93.9222H63.0017V85.5141H64.2268ZM72.7314 90.6872V92.6823H76.4637V93.8937H71.5205V85.5141H76.3924V86.6969H72.7314V88.0223V88.7063V89.5471H76.0221V90.6872H72.7314Z" fill="#605F54"/>
<path d="M48.0725 101.331H22.4021V100.618H48.0725V101.331Z" fill="#D0B16F"/>
<path d="M23.7982 108.102C24.0688 108.102 24.3252 108.159 24.5532 108.259C24.7953 108.359 24.9948 108.516 25.1657 108.687C25.3509 108.872 25.4792 109.086 25.593 109.328C25.6928 109.57 25.7355 109.826 25.7355 110.111C25.7355 110.382 25.6928 110.639 25.593 110.881C25.4934 111.124 25.3652 111.337 25.1799 111.523C25.009 111.708 24.8096 111.851 24.5674 111.95C24.3394 112.065 24.0831 112.107 23.7982 112.107H22.4021V108.102H23.7982ZM23.7269 111.594C23.9406 111.594 24.1258 111.551 24.2967 111.48C24.4677 111.394 24.6102 111.295 24.7383 111.152C24.8666 111.024 24.9663 110.867 25.0233 110.682C25.0945 110.496 25.1372 110.311 25.1372 110.111C25.1372 109.898 25.0945 109.713 25.0233 109.528C24.9663 109.343 24.8666 109.186 24.7383 109.058C24.6102 108.915 24.4677 108.815 24.2967 108.73C24.1258 108.658 23.9406 108.616 23.7269 108.616H22.9862V111.594H23.7269ZM28.1715 110.568V111.523H29.9522V112.093H27.5875V108.102H29.9094V108.673H28.1715V109.3V109.627V110.026H29.7386V110.568H28.1715ZM33.4281 110.625L34.4396 108.102H35.0521L33.4281 112.136L31.7899 108.102H32.4024L33.4281 110.625ZM37.4738 110.568V111.523H39.2545V112.093H36.8898V108.102H39.226V108.673H37.4738V109.3V109.627V110.026H39.0408V110.568H37.4738ZM41.6905 108.102V111.537H43.3287V112.122H41.1064V108.102H41.6905ZM47.1608 108.088C47.4456 108.088 47.7021 108.131 47.9442 108.245C48.1864 108.345 48.4001 108.487 48.5853 108.673C48.7562 108.858 48.8987 109.072 49.0126 109.314C49.1123 109.57 49.1693 109.826 49.1693 110.111C49.1693 110.382 49.1123 110.653 49.0126 110.896C48.8987 111.138 48.7562 111.352 48.5853 111.537C48.4001 111.708 48.1864 111.851 47.9442 111.965C47.7021 112.065 47.4456 112.122 47.1608 112.122C46.8901 112.122 46.6194 112.065 46.3773 111.965C46.135 111.851 45.9357 111.708 45.7504 111.537C45.5653 111.352 45.4228 111.138 45.3231 110.896C45.2233 110.653 45.1664 110.382 45.1664 110.111C45.1664 109.826 45.2233 109.57 45.3231 109.314C45.4228 109.072 45.5653 108.858 45.7504 108.673C45.9357 108.487 46.135 108.345 46.3773 108.245C46.6194 108.131 46.8901 108.088 47.1608 108.088ZM47.1608 111.551C47.3459 111.551 47.5311 111.523 47.7021 111.437C47.873 111.366 48.0155 111.266 48.1437 111.138C48.2719 110.995 48.3716 110.853 48.4429 110.667C48.5141 110.496 48.5568 110.311 48.5568 110.111C48.5568 109.912 48.5141 109.713 48.4429 109.542C48.3716 109.357 48.2719 109.214 48.1437 109.072C48.0155 108.944 47.873 108.844 47.7021 108.758C47.5311 108.687 47.3459 108.644 47.1608 108.644C46.9755 108.644 46.7904 108.687 46.6194 108.758C46.4627 108.844 46.306 108.944 46.192 109.072C46.0638 109.214 45.9642 109.357 45.8929 109.542C45.8217 109.713 45.7789 109.912 45.7789 110.111C45.7789 110.311 45.8217 110.496 45.8929 110.667C45.9642 110.853 46.0638 110.995 46.192 111.138C46.306 111.266 46.4627 111.366 46.6194 111.437C46.7904 111.523 46.9755 111.551 47.1608 111.551ZM53.8134 109.371C53.8134 109.385 53.8134 109.414 53.8276 109.442C53.8276 109.456 53.8276 109.485 53.8276 109.513C53.8276 109.542 53.8276 109.57 53.8276 109.584C53.8134 109.613 53.8134 109.627 53.8134 109.656L53.7991 109.784C53.7991 109.798 53.7849 109.798 53.7849 109.812C53.7849 109.826 53.7849 109.841 53.7849 109.855C53.7706 109.869 53.7706 109.898 53.7706 109.912C53.7136 110.083 53.6425 110.226 53.5427 110.354C53.443 110.496 53.3148 110.596 53.1724 110.696C53.0584 110.767 52.9159 110.824 52.7735 110.867C52.631 110.91 52.4743 110.924 52.3034 110.924H51.5911V112.122H51.007V108.088H52.3034C52.631 108.088 52.9301 108.174 53.1724 108.331C53.3148 108.416 53.443 108.53 53.5427 108.658C53.6425 108.801 53.7136 108.944 53.7706 109.1C53.7849 109.143 53.7849 109.186 53.7849 109.214C53.7849 109.229 53.7991 109.229 53.7991 109.229C53.7991 109.257 53.7991 109.271 53.7991 109.3C53.8134 109.314 53.8134 109.343 53.8134 109.357V109.371ZM52.3746 110.411C52.5028 110.411 52.6168 110.382 52.7165 110.34C52.8162 110.283 52.9016 110.226 52.9729 110.14C53.0441 110.054 53.1011 109.955 53.1439 109.855C53.1866 109.741 53.2151 109.627 53.2151 109.513C53.2151 109.399 53.1866 109.286 53.1439 109.172C53.1011 109.072 53.0441 108.972 52.9729 108.887C52.9016 108.801 52.8162 108.73 52.7165 108.687C52.6168 108.63 52.5028 108.616 52.3746 108.616H51.6053V110.411H52.3746ZM57.7309 110.867L59.0415 108.102L59.7822 112.122H59.184L58.7993 109.883L57.7309 112.193L56.6483 109.883L56.2636 112.122H55.6653L56.406 108.102L57.7309 110.867ZM62.204 110.568V111.523H63.9989V112.093H61.6342V108.102H63.9562V108.673H62.204V109.3V109.627V110.026H63.7852V110.568H62.204ZM66.3922 109.584V112.122H65.8366V108.031L68.4292 111.138V108.102H68.9849V112.122H68.4435L66.3922 109.584ZM70.8225 108.658V108.102H73.3866V108.658H72.3895V112.107H71.8197V108.658H70.8225ZM24.3822 119.403C24.6102 119.403 24.8238 119.346 25.0233 119.232C25.2227 119.118 25.3794 118.976 25.4934 118.791L25.9777 119.147C25.7925 119.389 25.5646 119.588 25.2939 119.731C25.009 119.874 24.7099 119.959 24.3822 119.959C24.1116 119.959 23.8551 119.902 23.613 119.788C23.3708 119.688 23.1571 119.546 22.9862 119.36C22.801 119.19 22.6585 118.976 22.5588 118.734C22.4448 118.492 22.4021 118.235 22.4021 117.95C22.4021 117.679 22.4448 117.408 22.5588 117.166C22.6585 116.924 22.801 116.71 22.9862 116.539C23.1571 116.353 23.3708 116.211 23.613 116.111C23.8551 115.997 24.1116 115.955 24.3822 115.955C24.7099 115.955 25.009 116.026 25.2939 116.168C25.5646 116.311 25.7925 116.51 25.9777 116.753L25.4934 117.109C25.3794 116.924 25.2227 116.781 25.0233 116.667C24.8238 116.553 24.6102 116.496 24.3822 116.496C24.1828 116.496 24.0118 116.539 23.8409 116.61C23.6842 116.696 23.5417 116.795 23.4135 116.924C23.2853 117.052 23.1856 117.209 23.1144 117.394C23.0431 117.565 23.0004 117.75 23.0004 117.95C23.0004 118.15 23.0431 118.335 23.1144 118.52C23.1856 118.691 23.2853 118.848 23.4135 118.976C23.5417 119.104 23.6842 119.204 23.8409 119.289C24.0118 119.36 24.1828 119.403 24.3822 119.403ZM29.8098 115.926C30.0947 115.926 30.3511 115.983 30.5933 116.083C30.8497 116.197 31.0491 116.339 31.2343 116.51C31.4195 116.696 31.5619 116.909 31.6616 117.166C31.7614 117.408 31.8184 117.665 31.8184 117.95C31.8184 118.235 31.7614 118.492 31.6616 118.734C31.5619 118.976 31.4195 119.19 31.2343 119.375C31.0491 119.56 30.8497 119.702 30.5933 119.802C30.3511 119.916 30.0947 119.959 29.8098 119.959C29.5391 119.959 29.2827 119.916 29.0405 119.802C28.7983 119.702 28.5846 119.56 28.3995 119.375C28.2285 119.19 28.0861 118.976 27.9721 118.734C27.8724 118.492 27.8154 118.235 27.8154 117.95C27.8154 117.665 27.8724 117.408 27.9721 117.166C28.0861 116.909 28.2285 116.696 28.3995 116.51C28.5846 116.339 28.7983 116.197 29.0405 116.083C29.2827 115.983 29.5391 115.926 29.8098 115.926ZM29.8098 119.403C30.0092 119.403 30.1802 119.36 30.3511 119.289C30.522 119.204 30.6787 119.104 30.7927 118.976C30.9209 118.848 31.0206 118.691 31.0918 118.52C31.163 118.335 31.2058 118.15 31.2058 117.95C31.2058 117.75 31.163 117.565 31.0918 117.38C31.0206 117.209 30.9209 117.052 30.7927 116.924C30.6787 116.781 30.522 116.681 30.3511 116.61C30.1802 116.524 30.0092 116.496 29.8098 116.496C29.6246 116.496 29.4536 116.524 29.2827 116.61C29.1117 116.681 28.9693 116.781 28.8411 116.924C28.7128 117.052 28.6131 117.209 28.5419 117.38C28.4707 117.565 28.428 117.75 28.428 117.95C28.428 118.15 28.4707 118.335 28.5419 118.52C28.6131 118.691 28.7128 118.848 28.8411 118.976C28.9693 119.104 29.1117 119.204 29.2827 119.289C29.4536 119.36 29.6246 119.403 29.8098 119.403ZM35.7217 118.706L37.0322 115.94L37.7872 119.959H37.1889L36.79 117.736L35.7217 120.03L34.6532 117.736L34.2543 119.959H33.656L34.4111 115.94L35.7217 118.706ZM42.4313 117.209C42.4313 117.237 42.4313 117.252 42.4313 117.28C42.4455 117.294 42.4455 117.323 42.4455 117.351V117.366C42.4455 117.38 42.4455 117.408 42.4313 117.437C42.4313 117.451 42.4313 117.48 42.4313 117.494V117.508L42.417 117.636L42.4028 117.651C42.4028 117.679 42.4028 117.693 42.4028 117.708C42.3885 117.722 42.3885 117.736 42.3743 117.75C42.3315 117.922 42.2603 118.078 42.1606 118.207C42.0466 118.335 41.9326 118.449 41.7902 118.535C41.6763 118.606 41.5338 118.663 41.3913 118.706C41.2489 118.748 41.0922 118.777 40.9212 118.777H40.2089V119.959H39.6249V115.94H40.9212C41.2489 115.94 41.548 116.012 41.7902 116.168C41.9326 116.268 42.0466 116.368 42.1606 116.51C42.2603 116.639 42.3315 116.781 42.3743 116.952C42.3885 116.995 42.4028 117.023 42.4028 117.052C42.4028 117.066 42.417 117.066 42.417 117.08C42.417 117.095 42.417 117.123 42.417 117.137C42.417 117.166 42.4313 117.18 42.4313 117.194V117.209ZM40.9924 118.264C41.1207 118.264 41.2346 118.235 41.3343 118.178C41.434 118.135 41.5195 118.064 41.5908 117.979C41.662 117.893 41.719 117.793 41.7617 117.693C41.8044 117.579 41.8329 117.465 41.8329 117.351C41.8329 117.237 41.8044 117.123 41.7617 117.023C41.719 116.909 41.662 116.81 41.5908 116.724C41.5195 116.653 41.434 116.581 41.3343 116.524C41.2346 116.482 41.1207 116.453 40.9924 116.453H40.2089V118.264H40.9924ZM44.2832 119.945L45.9214 115.94L47.5596 119.945H46.9613L46.8331 119.631H45.0097L44.8814 119.945H44.2832ZM45.2091 119.119H46.6337L45.9214 117.28L45.2091 119.119ZM49.9528 117.437V119.959H49.3973V115.884L51.99 118.976V115.955H52.5455V119.959H52.0042L49.9528 117.437ZM56.8049 115.94H57.4603L56.2209 118.649V119.959H55.6226V118.649L54.3832 115.94H55.0385L55.9217 118.078L56.8049 115.94Z" fill="#605F54"/>
<path fill-rule="evenodd" clip-rule="evenodd" d="M17.5154 50.9271C17.8858 51.0412 18.3132 51.1266 18.8118 51.2121C18.9827 51.2406 19.1679 51.2692 19.3673 51.2834L21.6181 55.6727L17.5154 50.9271ZM24.3817 15.9692L29.3534 18.1639V18.9192H24.3817V15.9692ZM25.7066 46.8798V41.2364C25.7066 39.6545 24.4245 38.3576 22.8432 38.3576C21.262 38.3576 19.9656 39.6545 19.9656 41.2364V46.8798C20.1081 46.8371 20.2648 46.7943 20.4357 46.7658C21.0483 46.6375 21.903 46.5663 22.8432 46.5663C23.7692 46.5663 24.6239 46.6375 25.2507 46.7658C25.4217 46.7943 25.5783 46.8371 25.7066 46.8798ZM19.467 47.9771C19.6807 48.1197 20.0084 48.2479 20.4357 48.3334C20.5212 48.3477 20.6209 48.3619 20.7206 48.3762L19.467 50.6706C19.2676 50.6421 19.0824 50.6279 18.8972 50.5993C18.1137 50.471 17.5012 50.3143 17.1023 50.129L19.467 47.9771ZM28.5699 50.129C28.1853 50.3143 27.5585 50.471 26.7608 50.5993C26.5898 50.6279 26.4046 50.6564 26.2194 50.6706L24.9658 48.3762C25.0655 48.3619 25.151 48.3477 25.2507 48.3334C25.6638 48.2479 25.9914 48.1197 26.2052 47.9771L28.5699 50.129ZM24.0683 55.6727L26.3049 51.2977C26.5043 51.2692 26.6895 51.2406 26.8604 51.2121C27.359 51.1409 27.7864 51.0412 28.1568 50.9414L24.0683 55.6727ZM24.2962 48.4617C23.8547 48.5187 23.3561 48.5329 22.8432 48.5329C22.3161 48.5329 21.8175 48.5045 21.3759 48.4617L20.1366 50.7419C20.9486 50.8273 21.8745 50.8701 22.8432 50.8701C23.8119 50.8701 24.7236 50.8273 25.5356 50.7419L24.2962 48.4617ZM20.1081 51.3689L22.8432 56.6988L25.5641 51.3689C24.7378 51.4544 23.8119 51.4971 22.8432 51.4971C21.8745 51.4971 20.9343 51.4544 20.1081 51.3689Z" fill="#D0B16F"/>
</g>
<defs>
<clipPath id="clip0_113_2464">
<rect width="76" height="104" fill="white" transform="translate(16 16)"/>
</clipPath>
</defs>
</svg>
