<svg width="33" height="33" viewBox="0 0 33 33" fill="none" xmlns="http://www.w3.org/2000/svg">
<rect x="0.5" y="0.5" width="32" height="32" rx="16" stroke="#605F54"/>
<path d="M17.0442 10.67C15.3162 10.67 14.5062 12.596 14.3622 16.664C14.9382 16.07 15.7482 15.53 16.8642 15.53C18.9342 15.53 20.4642 16.97 20.4642 19.22C20.4642 21.47 18.9342 23.27 16.5042 23.27C14.1642 23.27 12.5442 21.38 12.5442 17.33C12.5442 13.19 13.9842 10.13 17.2242 10.13C19.1142 10.13 20.1042 11.534 20.1042 12.704C20.1042 13.658 19.6002 14.09 19.0962 14.09C18.4302 14.09 18.1242 13.64 18.1242 13.082C18.1242 12.308 18.5742 12.11 18.5742 11.57C18.5742 11.21 18.1242 10.67 17.0442 10.67ZM16.3242 16.16C15.4422 16.16 14.7942 16.754 14.3442 17.366V17.96C14.3442 21.65 15.3342 22.73 16.5942 22.73C17.6742 22.73 18.6642 21.83 18.6642 19.58C18.6642 17.33 17.7642 16.16 16.3242 16.16Z" fill="#605F54"/>
</svg>
