<svg width="16" height="18" viewBox="0 0 16 18" fill="none" xmlns="http://www.w3.org/2000/svg">
<path fill-rule="evenodd" clip-rule="evenodd" d="M1.77346 9.25795C5.2284 7.75263 7.53223 6.76024 8.68496 6.28076C11.9762 4.91176 12.6601 4.67395 13.1059 4.6661C13.2039 4.66437 13.4231 4.68867 13.5651 4.80389C13.685 4.90118 13.718 5.03261 13.7338 5.12486C13.7496 5.2171 13.7692 5.42723 13.7536 5.59142C13.5753 7.46548 12.8035 12.0133 12.4109 14.1123C12.2448 15.0005 11.9177 15.2983 11.601 15.3274C10.9127 15.3907 10.3901 14.8725 9.72353 14.4356C8.68045 13.7518 8.09118 13.3261 7.07868 12.6589C5.90858 11.8878 6.66711 11.464 7.33395 10.7713C7.50847 10.5901 10.5408 7.8318 10.5995 7.58158C10.6069 7.55029 10.6137 7.43364 10.5444 7.37204C10.4751 7.31045 10.3728 7.33151 10.299 7.34826C10.1944 7.37201 8.52806 8.47343 5.30001 10.6525C4.82702 10.9773 4.39861 11.1356 4.01476 11.1273C3.59161 11.1181 2.77762 10.888 2.17251 10.6913C1.43031 10.45 0.840424 10.3225 0.89179 9.91274C0.918544 9.69932 1.21244 9.48106 1.77346 9.25795Z" fill="#605F54"/>
</svg>
