<svg width="33" height="33" viewBox="0 0 33 33" fill="none" xmlns="http://www.w3.org/2000/svg">
<rect x="0.5" y="0.5" width="32" height="32" rx="16" stroke="#605F54"/>
<path d="M14.8842 15.98H16.1442C17.6922 15.98 18.4842 14.9 18.4842 13.28C18.4842 11.84 17.6922 10.67 15.9642 10.67C14.7042 10.67 13.9842 11.39 13.9842 12.11C13.9842 12.74 14.8842 12.74 14.8842 13.694C14.8842 14.234 14.4702 14.63 13.9122 14.63C13.2822 14.63 12.7242 14.09 12.7242 13.064C12.7242 11.552 14.1642 10.13 16.3242 10.13C18.7542 10.13 20.1942 11.57 20.1942 13.19C20.1942 15.71 17.5842 16.196 17.5842 16.196V16.286C17.5842 16.286 20.4642 16.61 20.4642 19.67C20.4642 21.938 18.5742 23.27 16.3242 23.27C13.8042 23.27 12.5442 21.758 12.5442 20.156C12.5442 18.95 13.1022 18.5 13.7322 18.5C14.2902 18.5 14.7042 18.896 14.7042 19.436C14.7042 20.39 13.7142 20.3 13.7142 21.11C13.7142 21.83 14.5242 22.73 16.0542 22.73C17.4942 22.73 18.6642 21.92 18.6642 19.67C18.6642 17.87 17.8902 16.52 16.1442 16.52H14.8842V15.98Z" fill="#605F54"/>
</svg>
