<svg width="33" height="33" viewBox="0 0 33 33" fill="none" xmlns="http://www.w3.org/2000/svg">
<rect x="0.5" y="0.5" width="32" height="32" rx="16" stroke="#605F54"/>
<path d="M19.7555 23H12.2675V22.73L14.8235 19.832C17.8475 16.412 18.3875 15.242 18.3875 13.46C18.3875 11.93 17.6135 10.67 15.9575 10.67C14.6075 10.67 13.7075 11.66 13.7075 12.47C13.7075 13.37 14.8775 13.1 14.8775 14.234C14.8775 14.738 14.4815 15.152 13.9235 15.152C13.1855 15.152 12.6275 14.54 12.6275 13.37C12.6275 11.66 14.1575 10.13 16.2275 10.13C18.3875 10.13 20.0975 11.48 20.0975 13.28C20.0975 14.972 19.4135 15.53 15.2375 20.192L14.1755 21.38H18.2255C19.2155 21.38 19.6475 21.29 20.1875 20.03L20.5475 20.12L19.7555 23Z" fill="#605F54"/>
</svg>
