<svg width="384" height="326" viewBox="0 0 384 326" fill="none" xmlns="http://www.w3.org/2000/svg">
<g opacity="0.6">
<mask id="path-1-inside-1_218_7295" fill="white">
<path fill-rule="evenodd" clip-rule="evenodd" d="M195.562 4.3365C205.608 5.11959 214.61 -1.14503 224.525 0.42112C234.44 2.11779 247.878 9.68753 247.486 22.4778C247.095 35.268 236.788 42.4462 236.788 42.4462C236.788 42.4462 227.917 47.1449 219.437 48.3192C211.087 49.494 210.696 49.1024 210.696 49.1024C210.696 49.1024 224.655 51.3212 235.353 47.014C233.788 51.8432 231.439 59.5435 230.787 62.8062C229.743 68.0266 225.829 75.8572 225.829 75.8572C225.829 75.8572 228.96 80.2948 227.525 87.0815C225.96 93.8683 222.959 102.874 222.959 102.874C222.959 102.874 224.134 109.921 223.09 116.055C222.046 122.059 219.568 127.41 219.568 127.41C219.568 127.41 219.959 138.634 218.524 143.854C217.088 149.206 213.305 158.603 213.305 158.603C213.305 158.603 214.349 172.829 210.957 181.181C207.695 189.403 200.911 200.236 200.911 200.236L197.519 204.804C199.085 204.934 200.65 205.718 201.433 207.284C202.868 209.764 201.955 212.765 199.607 214.201C198.172 214.984 196.476 214.984 195.171 214.462C194.91 222.945 200.259 226.599 206.13 226.599C213.435 226.599 215.001 220.204 217.219 213.418H216.958C214.218 214.201 211.479 212.504 210.826 209.764C210.044 207.153 211.74 204.413 214.349 203.629C216.436 203.238 218.393 203.891 219.568 205.456C220.219 202.846 220.741 200.889 220.872 199.975V199.845V199.714V199.583H221.002V199.453C221.394 197.104 216.697 190.969 216.958 184.183C217.219 177.266 219.828 167.477 219.828 167.477C219.828 167.477 218.524 162.909 221.394 153.774C224.134 144.768 227.265 140.07 227.265 140.07C227.265 140.07 229.091 131.586 229.874 127.149C230.135 125.452 230.656 123.103 231.178 120.754C239.267 109.399 256.749 109.008 256.749 109.008C256.749 109.008 250.356 106.919 241.093 110.574C238.224 111.618 235.353 113.576 232.744 115.794C233.788 113.445 234.962 111.226 236.527 109.53C240.572 105.223 244.355 96.8698 253.227 91.9107C262.098 86.9512 275.276 82.9052 286.101 87.2119C296.931 91.5191 297.845 93.2154 304.892 95.1735C311.934 97.2614 320.937 98.5666 323.678 104.309C326.414 109.921 325.243 114.489 325.243 114.489C325.243 114.489 330.982 127.279 326.414 134.849C321.85 142.288 317.154 146.073 313.371 145.551C309.588 145.029 301.237 142.549 301.237 142.549C301.237 142.549 295.494 143.594 290.279 142.288H290.146L289.884 142.158C289.365 142.027 288.842 141.897 288.318 141.636C287.538 141.375 286.753 141.114 286.101 140.722C283.365 139.548 280.234 137.199 279.059 133.675C276.841 126.888 277.493 121.928 277.493 121.928C277.493 121.928 273.839 128.976 276.97 136.285L277.103 136.546C276.58 137.068 273.187 140.461 270.578 141.636C267.708 143.072 263.794 151.946 263.794 151.946C263.794 151.946 264.837 156.906 261.054 162.257C257.271 167.739 253.487 172.437 253.487 172.437C253.487 172.437 255.836 175.178 252.835 178.702C249.965 182.356 247.878 189.403 246.703 191.622C245.399 193.71 242.137 196.19 236.658 198.148C231.178 200.105 227.134 200.105 226.482 201.672V201.802C226.221 202.846 225.569 204.413 225.047 206.24C227.656 205.718 230.396 207.284 231.048 209.894C231.7 212.635 230.135 215.376 227.395 216.028C225.569 216.55 223.612 215.898 222.437 214.592C221.655 220.074 222.437 227.122 229.482 228.949C237.441 231.167 241.224 227.122 244.094 222.423H243.964C241.093 222.423 238.875 220.074 238.875 217.333C238.875 214.592 241.093 212.243 243.964 212.243C245.138 212.243 246.312 212.765 247.225 213.548C247.747 209.241 247.617 205.456 247.617 205.456L258.445 210.938C258.445 210.938 254.009 215.506 251.139 220.727C248.139 225.947 243.833 238.868 243.833 238.868C243.833 238.868 224.786 229.471 192.17 229.471H191.779H191.388C158.772 229.471 139.724 238.868 139.724 238.868C139.724 238.868 135.289 225.947 132.419 220.727C129.418 215.506 125.113 210.938 125.113 210.938L135.941 205.456C135.941 205.456 135.68 209.241 136.333 213.548C137.246 212.765 138.289 212.243 139.594 212.243C142.334 212.243 144.682 214.592 144.682 217.333C144.682 220.074 142.334 222.423 139.594 222.423H139.333C142.334 227.122 146.117 231.167 154.076 228.949C160.99 227.122 161.903 220.074 161.12 214.592C159.816 215.898 157.989 216.55 156.163 216.028C153.423 215.376 151.727 212.635 152.51 209.894C153.162 207.284 155.902 205.718 158.511 206.24C157.467 203.107 156.685 200.628 156.554 200.497C155.641 198.801 153.162 195.407 148.596 193.319C142.725 190.709 138.551 191.883 136.593 186.793C134.767 181.703 128.505 175.438 129.027 171.393C129.549 167.216 131.114 166.825 131.114 166.825C131.114 166.825 125.113 155.731 122.243 153.643C119.373 151.424 119.633 149.206 120.416 147.77C121.199 146.465 122.373 146.334 122.373 146.334C122.373 146.334 113.893 132.891 109.066 132.369C108.153 132.239 107.24 132.5 106.196 132.891C108.544 125.974 105.283 119.579 105.283 119.579C105.283 119.579 105.935 124.539 103.717 131.325C102.804 134.066 100.847 135.893 98.7594 137.329C96.4112 138.634 93.8021 139.808 90.6712 140.07C87.9313 140.983 82.9736 141.375 79.0599 140.07C75.1461 138.634 69.536 139.156 63.9264 133.153C58.186 127.149 54.6634 116.708 58.7079 108.224C62.8824 99.8718 63.2741 97.0006 71.2319 93.2154C79.3206 89.4307 81.9301 90.4747 86.3658 86.5596C90.9319 82.644 103.326 79.6424 110.893 80.2948C118.459 80.8168 135.028 84.7324 142.725 93.8683C147.683 99.7414 150.683 104.831 152.379 107.833C151.336 107.18 150.292 106.659 149.118 106.267C139.855 102.743 133.462 104.701 133.462 104.701C133.462 104.701 151.075 105.223 159.033 116.578C159.294 121.928 160.99 130.803 160.86 132.761C160.729 134.849 163.991 135.371 164.382 143.985C164.773 152.599 165.817 156.906 165.817 156.906C165.817 156.906 170.514 169.043 169.339 175.178C168.035 181.312 163.338 192.144 163.077 193.971C162.947 195.146 162.686 197.626 162.555 199.453C162.555 199.714 163.077 202.063 163.86 205.456C165.165 203.891 167.122 203.238 169.079 203.629C171.818 204.413 173.384 207.153 172.732 209.764C172.079 212.504 169.339 214.201 166.6 213.418H166.208C168.557 220.204 170.122 226.599 177.428 226.599C183.299 226.599 188.648 222.945 188.387 214.462C186.952 214.984 185.386 214.984 183.951 214.201C181.472 212.765 180.689 209.764 181.994 207.284C182.907 205.848 184.212 205.065 185.647 204.804C183.56 202.324 179.124 196.451 177.036 190.056C174.297 181.703 171.427 161.343 172.34 158.733C173.253 156.123 174.688 154.296 174.688 154.296C174.688 154.296 167.122 144.246 167.513 136.024C167.904 127.801 169.861 122.45 169.861 122.45C169.861 122.45 165.948 106.659 166.469 103.135C166.861 99.4802 167.644 98.4362 167.644 98.4362C167.644 98.4362 162.816 87.6035 162.555 81.8612C162.164 75.9881 163.73 75.2049 163.208 72.5945C162.686 69.8537 160.338 62.8062 161.251 58.7603C162.295 54.7143 164.382 51.8432 162.816 47.6668C162.555 47.1449 162.425 46.6224 162.033 46.2313C171.688 48.3192 181.603 46.7533 181.603 46.7533C181.603 46.7533 181.342 47.1449 172.862 45.97C164.643 44.7954 156.032 40.358 155.511 40.097C154.989 39.836 154.728 39.5749 154.728 39.5749C154.728 39.5749 142.464 32.6578 146.77 16.8657C151.205 0.943172 164.382 -0.62298 171.296 0.160095C178.211 1.07368 184.342 3.68394 195.562 4.3365ZM242.92 241.217L234.44 238.085C233.005 237.432 231.309 238.215 230.787 239.651C230.265 241.086 231.048 242.783 232.483 243.305L240.833 246.568L242.92 241.217ZM221.133 234.561L211.87 232.995C210.304 232.734 208.869 233.778 208.609 235.213C208.347 236.78 209.391 238.215 210.957 238.476L220.219 240.042C221.655 240.303 223.22 239.39 223.481 237.824C223.742 236.258 222.698 234.822 221.133 234.561ZM194.388 255.834C203.781 255.834 212.262 255.573 218.263 255.051C218.002 252.702 217.871 250.875 217.871 249.439C211.348 248.526 203.52 247.873 194.388 247.743C194.388 249.962 194.388 252.833 194.388 255.834ZM222.437 254.399C225.438 253.877 227.134 253.224 227.265 252.311C227.265 251.528 226.482 251.006 225.438 250.614C224.264 250.484 223.09 250.222 221.785 250.092C222.046 251.136 222.177 252.702 222.437 254.399ZM238.224 253.746C238.224 253.746 236.788 254.399 234.049 255.312C235.484 263.926 239.267 282.198 247.486 293.291C258.445 308.04 281.928 318.35 298.887 311.694C315.85 304.907 312.719 292.769 306.976 289.507C301.104 286.114 277.622 279.588 270.578 276.455C263.533 273.323 253.618 266.667 257.793 258.967C261.967 251.266 268.36 236.91 272.404 236.519C276.58 235.997 309.588 244.088 327.327 239.52C344.943 234.953 357.857 227.644 363.857 218.9C369.857 210.286 371.033 207.153 371.033 207.153C371.033 207.153 371.294 214.984 369.857 222.684C368.554 230.515 366.469 234.039 366.469 234.039C366.469 234.039 372.337 232.864 376.253 230.907C380.035 229.079 383.557 226.73 383.557 226.73C383.557 226.73 363.338 267.972 320.804 267.711C283.622 267.581 272.796 254.007 267.577 254.79C262.489 255.573 259.358 259.228 260.924 263.665C262.489 267.972 268.752 273.976 288.842 279.196C308.803 284.417 333.461 293.813 330.591 306.604C327.589 319.394 308.28 326.964 294.714 325.398C281.014 323.831 256.749 316.392 247.486 301.383C239.137 287.941 234.44 275.281 231.048 256.226C228.83 256.879 226.221 257.531 223.09 258.184C223.481 260.141 223.872 262.099 224.264 263.665C225.829 269.147 227.134 270.974 225.047 271.626C222.959 272.41 219.959 265.231 219.176 261.055C219.046 260.272 218.915 259.619 218.785 258.967C212.131 260.011 204.042 260.925 194.258 261.055C193.997 268.494 194.388 274.498 191.779 274.889C189.17 274.498 189.431 268.494 189.17 261.055C179.516 260.925 171.297 260.011 164.773 258.967C164.643 259.619 164.513 260.272 164.382 261.055C163.469 265.231 160.598 272.41 158.511 271.626C156.424 270.974 157.729 269.147 159.163 263.665C159.685 262.099 160.077 260.141 160.468 258.184C157.337 257.531 154.728 256.879 152.51 256.226C149.118 275.411 144.291 287.941 136.071 301.383C126.809 316.392 102.543 323.831 88.8444 325.398C75.1461 326.964 55.8377 319.394 52.9675 306.604C49.9669 293.813 74.7545 284.417 94.7153 279.196C114.676 273.976 121.068 267.972 122.634 263.665C124.2 259.228 121.068 255.573 115.85 254.79C110.762 254.007 99.9338 267.581 62.7521 267.711C20.0912 267.972 0 226.73 0 226.73C0 226.73 3.39176 229.079 7.30596 230.907C11.0893 232.864 16.9601 234.039 16.9601 234.039C16.9601 234.039 15.003 230.515 13.5679 222.684C12.2632 214.984 12.3936 207.153 12.3936 207.153C12.3936 207.153 13.6983 210.286 19.6995 218.9C25.5704 227.644 38.486 234.953 56.2289 239.52C73.9718 244.088 106.978 235.997 111.023 236.519C115.198 236.91 121.46 251.266 125.765 258.967C129.94 266.667 120.025 273.323 112.98 276.455C105.935 279.588 82.3212 286.114 76.5812 289.507C70.8408 292.769 67.7098 304.907 84.6695 311.694C101.63 318.35 125.113 308.04 136.071 293.291C144.291 282.198 148.074 263.926 149.509 255.312C146.77 254.399 145.335 253.746 145.335 253.746L143.639 249.309C145.204 248.265 158.38 239.912 191.126 239.912H191.779H192.301C225.177 239.912 238.354 248.265 239.919 249.309L238.224 253.746ZM158.12 250.614C157.076 251.006 156.293 251.528 156.293 252.311C156.293 253.224 158.12 253.877 160.99 254.399C161.381 252.702 161.512 251.136 161.642 250.092C160.468 250.222 159.163 250.484 158.12 250.614ZM165.295 255.051C171.297 255.573 179.776 255.834 189.17 255.834C189.039 252.833 189.17 249.962 189.17 247.743C179.907 247.873 172.079 248.526 165.686 249.439C165.686 250.875 165.556 252.702 165.295 255.051ZM140.638 241.217L149.118 238.085C150.553 237.432 152.118 238.215 152.771 239.651C153.293 241.086 152.51 242.783 151.075 243.305L142.595 246.568L140.638 241.217ZM162.425 234.561L171.688 232.995C173.253 232.734 174.688 233.778 174.949 235.213C175.21 236.78 174.167 238.215 172.601 238.476L163.338 240.042C161.773 240.303 160.338 239.39 160.077 237.824C159.816 236.258 160.86 234.822 162.425 234.561ZM187.082 232.081H191.779H196.476C198.041 232.081 199.346 233.256 199.346 234.822C199.346 236.388 198.041 237.693 196.476 237.693H191.779H187.082C185.517 237.693 184.212 236.388 184.212 234.822C184.212 233.256 185.517 232.081 187.082 232.081ZM158.772 195.277C158.772 195.277 155.119 166.042 145.074 144.376C135.028 122.712 120.416 114.881 120.416 114.881C120.416 114.881 135.811 129.498 142.856 145.812C149.77 161.996 158.772 195.277 158.772 195.277ZM227.656 195.277C227.656 195.277 231.178 167.477 241.224 145.812C251.27 124.147 266.012 114.881 266.012 114.881C266.012 114.881 251.27 130.02 244.355 146.204C237.31 162.387 227.656 195.277 227.656 195.277ZM192.431 189.403C192.431 189.403 194.388 145.16 194.649 118.144C195.041 91.2579 196.084 58.8907 196.084 58.8907C196.084 58.8907 192.562 82.122 191.518 118.405C190.344 154.687 192.431 189.403 192.431 189.403Z"/>
</mask>
<path fill-rule="evenodd" clip-rule="evenodd" d="M195.562 4.3365C205.608 5.11959 214.61 -1.14503 224.525 0.42112C234.44 2.11779 247.878 9.68753 247.486 22.4778C247.095 35.268 236.788 42.4462 236.788 42.4462C236.788 42.4462 227.917 47.1449 219.437 48.3192C211.087 49.494 210.696 49.1024 210.696 49.1024C210.696 49.1024 224.655 51.3212 235.353 47.014C233.788 51.8432 231.439 59.5435 230.787 62.8062C229.743 68.0266 225.829 75.8572 225.829 75.8572C225.829 75.8572 228.96 80.2948 227.525 87.0815C225.96 93.8683 222.959 102.874 222.959 102.874C222.959 102.874 224.134 109.921 223.09 116.055C222.046 122.059 219.568 127.41 219.568 127.41C219.568 127.41 219.959 138.634 218.524 143.854C217.088 149.206 213.305 158.603 213.305 158.603C213.305 158.603 214.349 172.829 210.957 181.181C207.695 189.403 200.911 200.236 200.911 200.236L197.519 204.804C199.085 204.934 200.65 205.718 201.433 207.284C202.868 209.764 201.955 212.765 199.607 214.201C198.172 214.984 196.476 214.984 195.171 214.462C194.91 222.945 200.259 226.599 206.13 226.599C213.435 226.599 215.001 220.204 217.219 213.418H216.958C214.218 214.201 211.479 212.504 210.826 209.764C210.044 207.153 211.74 204.413 214.349 203.629C216.436 203.238 218.393 203.891 219.568 205.456C220.219 202.846 220.741 200.889 220.872 199.975V199.845V199.714V199.583H221.002V199.453C221.394 197.104 216.697 190.969 216.958 184.183C217.219 177.266 219.828 167.477 219.828 167.477C219.828 167.477 218.524 162.909 221.394 153.774C224.134 144.768 227.265 140.07 227.265 140.07C227.265 140.07 229.091 131.586 229.874 127.149C230.135 125.452 230.656 123.103 231.178 120.754C239.267 109.399 256.749 109.008 256.749 109.008C256.749 109.008 250.356 106.919 241.093 110.574C238.224 111.618 235.353 113.576 232.744 115.794C233.788 113.445 234.962 111.226 236.527 109.53C240.572 105.223 244.355 96.8698 253.227 91.9107C262.098 86.9512 275.276 82.9052 286.101 87.2119C296.931 91.5191 297.845 93.2154 304.892 95.1735C311.934 97.2614 320.937 98.5666 323.678 104.309C326.414 109.921 325.243 114.489 325.243 114.489C325.243 114.489 330.982 127.279 326.414 134.849C321.85 142.288 317.154 146.073 313.371 145.551C309.588 145.029 301.237 142.549 301.237 142.549C301.237 142.549 295.494 143.594 290.279 142.288H290.146L289.884 142.158C289.365 142.027 288.842 141.897 288.318 141.636C287.538 141.375 286.753 141.114 286.101 140.722C283.365 139.548 280.234 137.199 279.059 133.675C276.841 126.888 277.493 121.928 277.493 121.928C277.493 121.928 273.839 128.976 276.97 136.285L277.103 136.546C276.58 137.068 273.187 140.461 270.578 141.636C267.708 143.072 263.794 151.946 263.794 151.946C263.794 151.946 264.837 156.906 261.054 162.257C257.271 167.739 253.487 172.437 253.487 172.437C253.487 172.437 255.836 175.178 252.835 178.702C249.965 182.356 247.878 189.403 246.703 191.622C245.399 193.71 242.137 196.19 236.658 198.148C231.178 200.105 227.134 200.105 226.482 201.672V201.802C226.221 202.846 225.569 204.413 225.047 206.24C227.656 205.718 230.396 207.284 231.048 209.894C231.7 212.635 230.135 215.376 227.395 216.028C225.569 216.55 223.612 215.898 222.437 214.592C221.655 220.074 222.437 227.122 229.482 228.949C237.441 231.167 241.224 227.122 244.094 222.423H243.964C241.093 222.423 238.875 220.074 238.875 217.333C238.875 214.592 241.093 212.243 243.964 212.243C245.138 212.243 246.312 212.765 247.225 213.548C247.747 209.241 247.617 205.456 247.617 205.456L258.445 210.938C258.445 210.938 254.009 215.506 251.139 220.727C248.139 225.947 243.833 238.868 243.833 238.868C243.833 238.868 224.786 229.471 192.17 229.471H191.779H191.388C158.772 229.471 139.724 238.868 139.724 238.868C139.724 238.868 135.289 225.947 132.419 220.727C129.418 215.506 125.113 210.938 125.113 210.938L135.941 205.456C135.941 205.456 135.68 209.241 136.333 213.548C137.246 212.765 138.289 212.243 139.594 212.243C142.334 212.243 144.682 214.592 144.682 217.333C144.682 220.074 142.334 222.423 139.594 222.423H139.333C142.334 227.122 146.117 231.167 154.076 228.949C160.99 227.122 161.903 220.074 161.12 214.592C159.816 215.898 157.989 216.55 156.163 216.028C153.423 215.376 151.727 212.635 152.51 209.894C153.162 207.284 155.902 205.718 158.511 206.24C157.467 203.107 156.685 200.628 156.554 200.497C155.641 198.801 153.162 195.407 148.596 193.319C142.725 190.709 138.551 191.883 136.593 186.793C134.767 181.703 128.505 175.438 129.027 171.393C129.549 167.216 131.114 166.825 131.114 166.825C131.114 166.825 125.113 155.731 122.243 153.643C119.373 151.424 119.633 149.206 120.416 147.77C121.199 146.465 122.373 146.334 122.373 146.334C122.373 146.334 113.893 132.891 109.066 132.369C108.153 132.239 107.24 132.5 106.196 132.891C108.544 125.974 105.283 119.579 105.283 119.579C105.283 119.579 105.935 124.539 103.717 131.325C102.804 134.066 100.847 135.893 98.7594 137.329C96.4112 138.634 93.8021 139.808 90.6712 140.07C87.9313 140.983 82.9736 141.375 79.0599 140.07C75.1461 138.634 69.536 139.156 63.9264 133.153C58.186 127.149 54.6634 116.708 58.7079 108.224C62.8824 99.8718 63.2741 97.0006 71.2319 93.2154C79.3206 89.4307 81.9301 90.4747 86.3658 86.5596C90.9319 82.644 103.326 79.6424 110.893 80.2948C118.459 80.8168 135.028 84.7324 142.725 93.8683C147.683 99.7414 150.683 104.831 152.379 107.833C151.336 107.18 150.292 106.659 149.118 106.267C139.855 102.743 133.462 104.701 133.462 104.701C133.462 104.701 151.075 105.223 159.033 116.578C159.294 121.928 160.99 130.803 160.86 132.761C160.729 134.849 163.991 135.371 164.382 143.985C164.773 152.599 165.817 156.906 165.817 156.906C165.817 156.906 170.514 169.043 169.339 175.178C168.035 181.312 163.338 192.144 163.077 193.971C162.947 195.146 162.686 197.626 162.555 199.453C162.555 199.714 163.077 202.063 163.86 205.456C165.165 203.891 167.122 203.238 169.079 203.629C171.818 204.413 173.384 207.153 172.732 209.764C172.079 212.504 169.339 214.201 166.6 213.418H166.208C168.557 220.204 170.122 226.599 177.428 226.599C183.299 226.599 188.648 222.945 188.387 214.462C186.952 214.984 185.386 214.984 183.951 214.201C181.472 212.765 180.689 209.764 181.994 207.284C182.907 205.848 184.212 205.065 185.647 204.804C183.56 202.324 179.124 196.451 177.036 190.056C174.297 181.703 171.427 161.343 172.34 158.733C173.253 156.123 174.688 154.296 174.688 154.296C174.688 154.296 167.122 144.246 167.513 136.024C167.904 127.801 169.861 122.45 169.861 122.45C169.861 122.45 165.948 106.659 166.469 103.135C166.861 99.4802 167.644 98.4362 167.644 98.4362C167.644 98.4362 162.816 87.6035 162.555 81.8612C162.164 75.9881 163.73 75.2049 163.208 72.5945C162.686 69.8537 160.338 62.8062 161.251 58.7603C162.295 54.7143 164.382 51.8432 162.816 47.6668C162.555 47.1449 162.425 46.6224 162.033 46.2313C171.688 48.3192 181.603 46.7533 181.603 46.7533C181.603 46.7533 181.342 47.1449 172.862 45.97C164.643 44.7954 156.032 40.358 155.511 40.097C154.989 39.836 154.728 39.5749 154.728 39.5749C154.728 39.5749 142.464 32.6578 146.77 16.8657C151.205 0.943172 164.382 -0.62298 171.296 0.160095C178.211 1.07368 184.342 3.68394 195.562 4.3365ZM242.92 241.217L234.44 238.085C233.005 237.432 231.309 238.215 230.787 239.651C230.265 241.086 231.048 242.783 232.483 243.305L240.833 246.568L242.92 241.217ZM221.133 234.561L211.87 232.995C210.304 232.734 208.869 233.778 208.609 235.213C208.347 236.78 209.391 238.215 210.957 238.476L220.219 240.042C221.655 240.303 223.22 239.39 223.481 237.824C223.742 236.258 222.698 234.822 221.133 234.561ZM194.388 255.834C203.781 255.834 212.262 255.573 218.263 255.051C218.002 252.702 217.871 250.875 217.871 249.439C211.348 248.526 203.52 247.873 194.388 247.743C194.388 249.962 194.388 252.833 194.388 255.834ZM222.437 254.399C225.438 253.877 227.134 253.224 227.265 252.311C227.265 251.528 226.482 251.006 225.438 250.614C224.264 250.484 223.09 250.222 221.785 250.092C222.046 251.136 222.177 252.702 222.437 254.399ZM238.224 253.746C238.224 253.746 236.788 254.399 234.049 255.312C235.484 263.926 239.267 282.198 247.486 293.291C258.445 308.04 281.928 318.35 298.887 311.694C315.85 304.907 312.719 292.769 306.976 289.507C301.104 286.114 277.622 279.588 270.578 276.455C263.533 273.323 253.618 266.667 257.793 258.967C261.967 251.266 268.36 236.91 272.404 236.519C276.58 235.997 309.588 244.088 327.327 239.52C344.943 234.953 357.857 227.644 363.857 218.9C369.857 210.286 371.033 207.153 371.033 207.153C371.033 207.153 371.294 214.984 369.857 222.684C368.554 230.515 366.469 234.039 366.469 234.039C366.469 234.039 372.337 232.864 376.253 230.907C380.035 229.079 383.557 226.73 383.557 226.73C383.557 226.73 363.338 267.972 320.804 267.711C283.622 267.581 272.796 254.007 267.577 254.79C262.489 255.573 259.358 259.228 260.924 263.665C262.489 267.972 268.752 273.976 288.842 279.196C308.803 284.417 333.461 293.813 330.591 306.604C327.589 319.394 308.28 326.964 294.714 325.398C281.014 323.831 256.749 316.392 247.486 301.383C239.137 287.941 234.44 275.281 231.048 256.226C228.83 256.879 226.221 257.531 223.09 258.184C223.481 260.141 223.872 262.099 224.264 263.665C225.829 269.147 227.134 270.974 225.047 271.626C222.959 272.41 219.959 265.231 219.176 261.055C219.046 260.272 218.915 259.619 218.785 258.967C212.131 260.011 204.042 260.925 194.258 261.055C193.997 268.494 194.388 274.498 191.779 274.889C189.17 274.498 189.431 268.494 189.17 261.055C179.516 260.925 171.297 260.011 164.773 258.967C164.643 259.619 164.513 260.272 164.382 261.055C163.469 265.231 160.598 272.41 158.511 271.626C156.424 270.974 157.729 269.147 159.163 263.665C159.685 262.099 160.077 260.141 160.468 258.184C157.337 257.531 154.728 256.879 152.51 256.226C149.118 275.411 144.291 287.941 136.071 301.383C126.809 316.392 102.543 323.831 88.8444 325.398C75.1461 326.964 55.8377 319.394 52.9675 306.604C49.9669 293.813 74.7545 284.417 94.7153 279.196C114.676 273.976 121.068 267.972 122.634 263.665C124.2 259.228 121.068 255.573 115.85 254.79C110.762 254.007 99.9338 267.581 62.7521 267.711C20.0912 267.972 0 226.73 0 226.73C0 226.73 3.39176 229.079 7.30596 230.907C11.0893 232.864 16.9601 234.039 16.9601 234.039C16.9601 234.039 15.003 230.515 13.5679 222.684C12.2632 214.984 12.3936 207.153 12.3936 207.153C12.3936 207.153 13.6983 210.286 19.6995 218.9C25.5704 227.644 38.486 234.953 56.2289 239.52C73.9718 244.088 106.978 235.997 111.023 236.519C115.198 236.91 121.46 251.266 125.765 258.967C129.94 266.667 120.025 273.323 112.98 276.455C105.935 279.588 82.3212 286.114 76.5812 289.507C70.8408 292.769 67.7098 304.907 84.6695 311.694C101.63 318.35 125.113 308.04 136.071 293.291C144.291 282.198 148.074 263.926 149.509 255.312C146.77 254.399 145.335 253.746 145.335 253.746L143.639 249.309C145.204 248.265 158.38 239.912 191.126 239.912H191.779H192.301C225.177 239.912 238.354 248.265 239.919 249.309L238.224 253.746ZM158.12 250.614C157.076 251.006 156.293 251.528 156.293 252.311C156.293 253.224 158.12 253.877 160.99 254.399C161.381 252.702 161.512 251.136 161.642 250.092C160.468 250.222 159.163 250.484 158.12 250.614ZM165.295 255.051C171.297 255.573 179.776 255.834 189.17 255.834C189.039 252.833 189.17 249.962 189.17 247.743C179.907 247.873 172.079 248.526 165.686 249.439C165.686 250.875 165.556 252.702 165.295 255.051ZM140.638 241.217L149.118 238.085C150.553 237.432 152.118 238.215 152.771 239.651C153.293 241.086 152.51 242.783 151.075 243.305L142.595 246.568L140.638 241.217ZM162.425 234.561L171.688 232.995C173.253 232.734 174.688 233.778 174.949 235.213C175.21 236.78 174.167 238.215 172.601 238.476L163.338 240.042C161.773 240.303 160.338 239.39 160.077 237.824C159.816 236.258 160.86 234.822 162.425 234.561ZM187.082 232.081H191.779H196.476C198.041 232.081 199.346 233.256 199.346 234.822C199.346 236.388 198.041 237.693 196.476 237.693H191.779H187.082C185.517 237.693 184.212 236.388 184.212 234.822C184.212 233.256 185.517 232.081 187.082 232.081ZM158.772 195.277C158.772 195.277 155.119 166.042 145.074 144.376C135.028 122.712 120.416 114.881 120.416 114.881C120.416 114.881 135.811 129.498 142.856 145.812C149.77 161.996 158.772 195.277 158.772 195.277ZM227.656 195.277C227.656 195.277 231.178 167.477 241.224 145.812C251.27 124.147 266.012 114.881 266.012 114.881C266.012 114.881 251.27 130.02 244.355 146.204C237.31 162.387 227.656 195.277 227.656 195.277ZM192.431 189.403C192.431 189.403 194.388 145.16 194.649 118.144C195.041 91.2579 196.084 58.8907 196.084 58.8907C196.084 58.8907 192.562 82.122 191.518 118.405C190.344 154.687 192.431 189.403 192.431 189.403Z" stroke="#605F54" mask="url(#path-1-inside-1_218_7295)"/>
</g>
</svg>
