<svg width="164" height="136" viewBox="0 0 164 136" fill="none" xmlns="http://www.w3.org/2000/svg">
<path fill-rule="evenodd" clip-rule="evenodd" d="M82.6054 2.81472C84.6477 2.97392 86.4778 1.70032 88.4935 2.01872C90.5093 2.36365 93.2412 3.90259 93.1615 6.50285C93.082 9.10312 90.9867 10.5625 90.9867 10.5625C90.9867 10.5625 89.1831 11.5177 87.4591 11.7564C85.7616 11.9953 85.6821 11.9157 85.6821 11.9157C85.6821 11.9157 88.52 12.3667 90.6949 11.4911C90.3767 12.4729 89.8992 14.0383 89.7666 14.7017C89.5544 15.763 88.7587 17.3549 88.7587 17.3549C88.7587 17.3549 89.3953 18.2571 89.1035 19.6369C88.7852 21.0166 88.1752 22.8474 88.1752 22.8474C88.1752 22.8474 88.414 24.2802 88.2017 25.5272C87.9896 26.7478 87.4857 27.8356 87.4857 27.8356C87.4857 27.8356 87.5652 30.1175 87.2734 31.1788C86.9817 32.2667 86.2125 34.1772 86.2125 34.1772C86.2125 34.1772 86.4247 37.0693 85.7351 38.7674C85.0721 40.439 83.6929 42.6413 83.6929 42.6413L83.0032 43.5699C83.3215 43.5965 83.6398 43.7557 83.7989 44.074C84.0907 44.5782 83.905 45.1884 83.4276 45.4803C83.1359 45.6395 82.7911 45.6395 82.5258 45.5334C82.4727 47.258 83.5602 48.0009 84.7538 48.0009C86.239 48.0009 86.5573 46.7008 87.0082 45.3212H86.9552C86.3981 45.4803 85.8412 45.1354 85.7086 44.5782C85.5495 44.0475 85.8942 43.4903 86.4247 43.3311C86.849 43.2515 87.2469 43.3842 87.4857 43.7026C87.6182 43.1719 87.7243 42.7739 87.7508 42.5882V42.5617V42.5352V42.5086H87.7773V42.4821C87.8569 42.0045 86.9021 40.7573 86.9552 39.3777C87.0082 37.9713 87.5387 35.9814 87.5387 35.9814C87.5387 35.9814 87.2734 35.0527 87.8569 33.1954C88.414 31.3646 89.0505 30.4094 89.0505 30.4094C89.0505 30.4094 89.4218 28.6847 89.5809 27.7826C89.634 27.4377 89.74 26.9601 89.8462 26.4825C91.4906 24.1741 95.0446 24.0945 95.0446 24.0945C95.0446 24.0945 93.7451 23.6699 91.8619 24.4128C91.2785 24.6251 90.6949 25.0231 90.1644 25.4742C90.3767 24.9966 90.6153 24.5455 90.9336 24.2006C91.7559 23.325 92.525 21.6268 94.3286 20.6186C96.1322 19.6103 98.8112 18.7878 101.012 19.6634C103.214 20.539 103.399 20.8839 104.832 21.2819C106.264 21.7064 108.094 21.9718 108.651 23.1393C109.208 24.2802 108.97 25.2089 108.97 25.2089C108.97 25.2089 110.136 27.8091 109.208 29.3481C108.28 30.8605 107.325 31.6299 106.556 31.5238C105.787 31.4177 104.089 30.9135 104.089 30.9135C104.089 30.9135 102.922 31.1258 101.861 30.8605H101.834L101.781 30.834C101.676 30.8074 101.569 30.7809 101.463 30.7277C101.304 30.6747 101.145 30.6216 101.012 30.542C100.456 30.3033 99.8192 29.8257 99.5803 29.1093C99.1295 27.7295 99.262 26.7212 99.262 26.7212C99.262 26.7212 98.5191 28.1541 99.1556 29.6399L99.1827 29.693C99.0763 29.7991 98.3865 30.489 97.8561 30.7277C97.2726 31.0197 96.4769 32.8239 96.4769 32.8239C96.4769 32.8239 96.6891 33.8322 95.9199 34.9201C95.1508 36.0345 94.3816 36.9897 94.3816 36.9897C94.3816 36.9897 94.859 37.5469 94.249 38.2633C93.6655 39.0062 93.2412 40.439 93.0024 40.8901C92.7372 41.3145 92.0741 41.8187 90.9602 42.2167C89.8462 42.6147 89.024 42.6147 88.8914 42.9331V42.9596C88.8382 43.1719 88.7057 43.4903 88.5996 43.8618C89.13 43.7557 89.687 44.074 89.8196 44.6047C89.9523 45.1619 89.634 45.7191 89.077 45.8518C88.7057 45.9579 88.3078 45.8253 88.0691 45.5599C87.91 46.6743 88.0691 48.1072 89.5014 48.4786C91.1193 48.9296 91.8885 48.1072 92.4719 47.1519H92.4454C91.8619 47.1519 91.411 46.6743 91.411 46.1171C91.411 45.5599 91.8619 45.0823 92.4454 45.0823C92.6841 45.0823 92.9228 45.1884 93.1085 45.3477C93.2146 44.472 93.188 43.7026 93.188 43.7026L95.3895 44.817C95.3895 44.817 94.4877 45.7456 93.9042 46.807C93.2942 47.8683 92.4189 50.4951 92.4189 50.4951C92.4189 50.4951 88.5466 48.5847 81.9158 48.5847H81.8362H81.7567C75.1259 48.5847 71.2535 50.4951 71.2535 50.4951C71.2535 50.4951 70.3517 47.8683 69.7683 46.807C69.1583 45.7456 68.283 44.817 68.283 44.817L70.4843 43.7026C70.4843 43.7026 70.4313 44.472 70.564 45.3477C70.7496 45.1884 70.9617 45.0823 71.227 45.0823C71.784 45.0823 72.2614 45.5599 72.2614 46.1171C72.2614 46.6743 71.784 47.1519 71.227 47.1519H71.174C71.784 48.1072 72.5532 48.9296 74.1711 48.4786C75.5768 48.1072 75.7624 46.6743 75.6033 45.5599C75.3381 45.8253 74.9668 45.9579 74.5954 45.8518C74.0385 45.7191 73.6936 45.1619 73.8528 44.6047C73.9854 44.074 74.5424 43.7557 75.0729 43.8618C74.8607 43.225 74.7015 42.7209 74.675 42.6943C74.4894 42.3494 73.9854 41.6595 73.0571 41.235C71.8635 40.7043 71.0149 40.9431 70.617 39.9083C70.2457 38.8735 68.9725 37.5999 69.0787 36.7774C69.1848 35.9283 69.503 35.8488 69.503 35.8488C69.503 35.8488 68.283 33.5934 67.6995 33.1689C67.1159 32.7178 67.169 32.2667 67.3281 31.9749C67.4873 31.7095 67.726 31.683 67.726 31.683C67.726 31.683 66.002 28.95 65.0206 28.8439C64.835 28.8174 64.6493 28.8704 64.4371 28.95C64.9146 27.5438 64.2514 26.2436 64.2514 26.2436C64.2514 26.2436 64.3841 27.2519 63.9332 28.6317C63.7475 29.1889 63.3497 29.5603 62.9253 29.8522C62.4479 30.1175 61.9175 30.3563 61.2809 30.4094C60.7239 30.5951 59.716 30.6747 58.9203 30.4094C58.1247 30.1175 56.9841 30.2237 55.8437 29.0031C54.6767 27.7826 53.9605 25.6599 54.7828 23.9352C55.6315 22.2371 55.7111 21.6534 57.3289 20.8839C58.9734 20.1144 59.5039 20.3267 60.4057 19.5307C61.3339 18.7347 63.8537 18.1245 65.392 18.2571C66.9303 18.3632 70.2987 19.1593 71.8635 21.0166C72.8714 22.2106 73.4815 23.2454 73.8262 23.8556C73.6141 23.723 73.4019 23.6169 73.1632 23.5373C71.2801 22.8208 69.9804 23.2189 69.9804 23.2189C69.9804 23.2189 73.5611 23.325 75.1789 25.6334C75.232 26.7212 75.5768 28.5255 75.5503 28.9235C75.5238 29.3481 76.1868 29.4542 76.2663 31.2054C76.346 32.9565 76.5581 33.8322 76.5581 33.8322C76.5581 33.8322 77.513 36.2997 77.2743 37.5469C77.009 38.7939 76.0542 40.9962 76.0012 41.3677C75.9747 41.6065 75.9216 42.1106 75.8951 42.4821C75.8951 42.5352 76.0012 43.0127 76.1603 43.7026C76.4256 43.3842 76.8234 43.2515 77.2212 43.3311C77.7782 43.4903 78.0965 44.0475 77.9639 44.5782C77.8313 45.1354 77.2742 45.4803 76.7172 45.3212H76.6377C77.1151 46.7008 77.4334 48.0009 78.9187 48.0009C80.1122 48.0009 81.1997 47.258 81.1467 45.5334C80.8549 45.6395 80.5366 45.6395 80.2449 45.4803C79.7409 45.1884 79.5817 44.5782 79.847 44.074C80.0326 43.7822 80.2979 43.623 80.5896 43.5699C80.1652 43.0658 79.2635 41.8717 78.8391 40.5716C78.2822 38.8735 77.6986 34.7344 77.8843 34.2037C78.0699 33.673 78.3617 33.3015 78.3617 33.3015C78.3617 33.3015 76.8234 31.2584 76.903 29.5868C76.9825 27.9152 77.3804 26.8273 77.3804 26.8273C77.3804 26.8273 76.5847 23.6169 76.6907 22.9004C76.7703 22.1575 76.9295 21.9453 76.9295 21.9453C76.9295 21.9453 75.9481 19.743 75.8951 18.5756C75.8154 17.3815 76.1338 17.2223 76.0277 16.6916C75.9216 16.1344 75.4442 14.7017 75.6298 13.8791C75.842 13.0566 76.2663 12.4729 75.9481 11.6238C75.8951 11.5177 75.8686 11.4115 75.7889 11.332C77.7516 11.7564 79.7675 11.4381 79.7675 11.4381C79.7675 11.4381 79.7144 11.5177 77.9904 11.2789C76.3195 11.04 74.5689 10.1379 74.4629 10.0848C74.3567 10.0318 74.3037 9.97872 74.3037 9.97872C74.3037 9.97872 71.8105 8.57246 72.6858 5.36192C73.5876 2.12485 76.2663 1.80645 77.6721 1.96565C79.0778 2.15139 80.3244 2.68205 82.6054 2.81472ZM92.2332 50.9727L90.5093 50.336C90.2175 50.2032 89.8727 50.3625 89.7666 50.6543C89.6605 50.9462 89.8197 51.2911 90.1114 51.3973L91.8089 52.0606L92.2332 50.9727ZM87.8039 49.6195L85.9207 49.3011C85.6025 49.2481 85.3107 49.4603 85.2577 49.7522C85.2046 50.0706 85.4168 50.3625 85.7351 50.4155L87.6182 50.7339C87.91 50.7869 88.2282 50.6012 88.2813 50.2829C88.3343 49.9645 88.1222 49.6725 87.8039 49.6195ZM82.3667 53.9444C84.2763 53.9444 86.0004 53.8914 87.2204 53.7853C87.1673 53.3077 87.1408 52.9362 87.1408 52.6443C85.8147 52.4585 84.2233 52.3259 82.3667 52.2994C82.3667 52.7505 82.3667 53.3342 82.3667 53.9444ZM88.0691 53.6526C88.6791 53.5464 89.024 53.4138 89.0505 53.2281C89.0505 53.0689 88.8914 52.9627 88.6791 52.8831C88.4405 52.8566 88.2017 52.8035 87.9366 52.777C87.9896 52.9892 88.0161 53.3077 88.0691 53.6526ZM91.2785 53.5199C91.2785 53.5199 90.9867 53.6526 90.4297 53.8383C90.7214 55.5895 91.4906 59.3042 93.1615 61.5595C95.3895 64.5578 100.164 66.6539 103.611 65.3007C107.06 63.921 106.423 61.4534 105.256 60.79C104.062 60.1002 99.2881 58.7735 97.8561 58.1367C96.4239 57.4999 94.4081 56.1467 95.2569 54.5812C96.1056 53.0157 97.4052 50.0971 98.2274 50.0175C99.0763 49.9114 105.787 51.5565 109.393 50.6278C112.975 49.6991 115.6 48.2133 116.82 46.4356C118.04 44.6843 118.279 44.0475 118.279 44.0475C118.279 44.0475 118.332 45.6395 118.04 47.205C117.775 48.797 117.351 49.5134 117.351 49.5134C117.351 49.5134 118.544 49.2746 119.34 48.8766C120.109 48.5051 120.825 48.0275 120.825 48.0275C120.825 48.0275 116.714 56.4121 108.067 56.3589C100.508 56.3324 98.307 53.5729 97.2461 53.7322C96.2117 53.8914 95.5751 54.6343 95.8934 55.5365C96.2117 56.4121 97.4848 57.6326 101.569 58.6939C105.627 59.7553 110.64 61.6656 110.057 64.2659C109.447 66.8661 105.521 68.4051 102.763 68.0867C99.9779 67.7683 95.0446 66.2559 93.1615 63.2046C91.4641 60.4717 90.5093 57.8979 89.8196 54.024C89.3688 54.1567 88.8382 54.2894 88.2017 54.4221C88.2813 54.8201 88.3608 55.218 88.4405 55.5365C88.7587 56.6509 89.024 57.0223 88.5996 57.155C88.1752 57.3142 87.5652 55.8549 87.406 55.0058C87.3795 54.8466 87.353 54.7139 87.3265 54.5812C85.9739 54.7936 84.3294 54.9793 82.3402 55.0058C82.2871 56.5182 82.3667 57.7387 81.8362 57.8183C81.3058 57.7387 81.3588 56.5182 81.3058 55.0058C79.3431 54.9793 77.6721 54.7936 76.346 54.5812C76.3195 54.7139 76.2929 54.8466 76.2663 55.0058C76.0807 55.8549 75.4972 57.3142 75.0729 57.155C74.6485 57.0223 74.9138 56.6509 75.2054 55.5365C75.3115 55.218 75.3912 54.8201 75.4707 54.4221C74.8341 54.2894 74.3037 54.1567 73.8528 54.024C73.1632 57.9244 72.1819 60.4717 70.5109 63.2046C68.6278 66.2559 63.6944 67.7683 60.9096 68.0867C58.1247 68.4051 54.1993 66.8661 53.6157 64.2659C53.0057 61.6656 58.0451 59.7553 62.1031 58.6939C66.1611 57.6326 67.4607 56.4121 67.779 55.5365C68.0973 54.6343 67.4607 53.8914 66.3998 53.7322C65.3654 53.5729 63.164 56.3324 55.605 56.3589C46.932 56.4121 42.8474 48.0275 42.8474 48.0275C42.8474 48.0275 43.537 48.5051 44.3327 48.8766C45.1019 49.2746 46.2954 49.5134 46.2954 49.5134C46.2954 49.5134 45.8975 48.797 45.6058 47.205C45.3405 45.6395 45.367 44.0475 45.367 44.0475C45.367 44.0475 45.6323 44.6843 46.8523 46.4356C48.0459 48.2133 50.6716 49.6991 54.2788 50.6278C57.8859 51.5565 64.5962 49.9114 65.4185 50.0175C66.2672 50.0971 67.5403 53.0157 68.4156 54.5812C69.2643 56.1467 67.2486 57.4999 65.8163 58.1367C64.3841 58.7735 59.5834 60.1002 58.4164 60.79C57.2494 61.4534 56.6129 63.921 60.0608 65.3007C63.5088 66.6539 68.283 64.5578 70.5109 61.5595C72.1819 59.3042 72.9511 55.5895 73.2428 53.8383C72.6858 53.6526 72.394 53.5199 72.394 53.5199L72.0493 52.6178C72.3675 52.4055 75.0463 50.7074 81.7036 50.7074H81.8362H81.9423C88.6261 50.7074 91.305 52.4055 91.6232 52.6178L91.2785 53.5199ZM74.9933 52.8831C74.7811 52.9627 74.622 53.0689 74.622 53.2281C74.622 53.4138 74.9933 53.5464 75.5768 53.6526C75.6563 53.3077 75.6829 52.9892 75.7094 52.777C75.4707 52.8035 75.2054 52.8566 74.9933 52.8831ZM76.4521 53.7853C77.6721 53.8914 79.3961 53.9444 81.3058 53.9444C81.2793 53.3342 81.3058 52.7505 81.3058 52.2994C79.4226 52.3259 77.8313 52.4585 76.5316 52.6443C76.5316 52.9362 76.5051 53.3077 76.4521 53.7853ZM71.4392 50.9727L73.1632 50.336C73.455 50.2032 73.7732 50.3625 73.9058 50.6543C74.012 50.9462 73.8528 51.2911 73.5611 51.3973L71.837 52.0606L71.4392 50.9727ZM75.8686 49.6195L77.7516 49.3011C78.0699 49.2481 78.3617 49.4603 78.4148 49.7522C78.4678 50.0706 78.2556 50.3625 77.9374 50.4155L76.0542 50.7339C75.7359 50.7869 75.4442 50.6012 75.3912 50.2829C75.338 49.9645 75.5503 49.6725 75.8686 49.6195ZM80.8814 49.1153H81.8362H82.7911C83.1094 49.1153 83.3745 49.3542 83.3745 49.6725C83.3745 49.991 83.1094 50.2563 82.7911 50.2563H81.8362H80.8814C80.5631 50.2563 80.2979 49.991 80.2979 49.6725C80.2979 49.3542 80.5631 49.1153 80.8814 49.1153ZM75.1259 41.633C75.1259 41.633 74.3832 35.6895 72.341 31.2849C70.2987 26.8805 67.3281 25.2885 67.3281 25.2885C67.3281 25.2885 70.4578 28.2602 71.8901 31.5769C73.2958 34.867 75.1259 41.633 75.1259 41.633ZM89.13 41.633C89.13 41.633 89.8462 35.9814 91.8885 31.5769C93.9307 27.1723 96.9278 25.2885 96.9278 25.2885C96.9278 25.2885 93.9307 28.3663 92.525 31.6564C91.0927 34.9466 89.13 41.633 89.13 41.633ZM81.9688 40.439C81.9688 40.439 82.3667 31.4442 82.4197 25.9518C82.4993 20.4859 82.7115 13.9056 82.7115 13.9056C82.7115 13.9056 81.9953 18.6286 81.7832 26.0049C81.5444 33.3811 81.9688 40.439 81.9688 40.439Z" fill="#D0B16F"/>
<path d="M43.0884 133.12L42.7172 132.696L41.4175 134.579H40.3301L42.0806 132.006L40.4627 130.202H41.5501L43.0884 131.9V130.202H44.0168V131.9L45.5552 130.202H46.6426L45.0247 132.006L46.7752 134.579H45.6878L44.3881 132.696L44.0168 133.12V134.579H43.0884V133.12ZM52.5042 134.579H51.5758V131.793L49.4275 134.579H48.6053V130.202H49.5601V132.988L51.7084 130.202H52.5042V134.579ZM58.578 130.202V134.579H57.6497V131.05H56.35V131.555C56.35 132.165 56.3235 132.67 56.2439 133.093C56.1909 133.518 56.0847 133.836 55.9521 134.049C55.8195 134.288 55.6604 134.447 55.5012 134.527C55.3421 134.632 55.1565 134.66 54.9177 134.66C54.8382 134.66 54.7321 134.66 54.6525 134.632C54.5464 134.632 54.4669 134.606 54.4403 134.579L54.3608 134.553V133.678C54.4669 133.704 54.5729 133.731 54.6791 133.731C54.8382 133.731 54.9708 133.678 55.0769 133.598C55.1565 133.492 55.2361 133.279 55.3156 132.935C55.3952 132.616 55.4217 132.139 55.4217 131.555V130.202H58.578ZM62.1055 131.37C61.8402 131.635 61.7076 131.979 61.7076 132.378C61.7076 132.802 61.8402 133.147 62.1055 133.413C62.3707 133.678 62.7155 133.836 63.1134 133.836C63.4847 133.836 63.8295 133.678 64.0947 133.413C64.36 133.147 64.5191 132.802 64.5191 132.378C64.5191 131.979 64.36 131.635 64.0947 131.37C63.8295 131.077 63.4847 130.945 63.1134 130.945C62.7155 130.945 62.3707 131.077 62.1055 131.37ZM61.4158 133.996C60.965 133.545 60.7263 133.014 60.7263 132.378C60.7263 131.767 60.965 131.21 61.4158 130.785C61.8667 130.334 62.4238 130.096 63.1134 130.096C63.7764 130.096 64.3334 130.334 64.7843 130.785C65.2352 131.21 65.4739 131.767 65.4739 132.378C65.4739 133.014 65.2352 133.545 64.7843 133.996C64.3334 134.447 63.7764 134.66 63.1134 134.66C62.4238 134.66 61.8667 134.447 61.4158 133.996ZM69.2932 129.007C69.3728 129.06 69.4523 129.114 69.5584 129.114C69.6646 129.114 69.7707 129.06 69.8237 129.007C69.9032 128.928 69.9298 128.849 69.9298 128.742H70.5663C70.5663 129.007 70.4867 129.246 70.3011 129.432C70.1154 129.618 69.8767 129.698 69.5584 129.698C69.2667 129.698 69.028 129.618 68.8423 129.432C68.6566 129.246 68.5771 129.007 68.5771 128.742H69.1872C69.1872 128.849 69.2137 128.928 69.2932 129.007ZM71.5477 134.579H70.5928V131.793L68.4445 134.579H67.6222V130.202H68.5771V132.988L70.7255 130.202H71.5477V134.579ZM78.0723 130.202V132.112L79.7964 130.202H80.8838L79.2658 132.006L81.0164 134.579H79.929L78.6293 132.696L78.0723 133.332V134.579H77.144V130.202H78.0723ZM83.7218 131.37C83.4565 131.635 83.3239 131.979 83.3239 132.378C83.3239 132.802 83.4565 133.147 83.7218 133.413C84.0135 133.678 84.3318 133.836 84.7296 133.836C85.1275 133.836 85.4457 133.678 85.711 133.413C86.0027 133.147 86.1354 132.802 86.1354 132.378C86.1354 131.979 86.0027 131.635 85.711 131.37C85.4457 131.077 85.1275 130.945 84.7296 130.945C84.3318 130.945 84.0135 131.077 83.7218 131.37ZM83.0321 133.996C82.5812 133.545 82.3426 133.014 82.3426 132.378C82.3426 131.767 82.5812 131.21 83.0321 130.785C83.5095 130.334 84.0665 130.096 84.7296 130.096C85.3927 130.096 85.9496 130.334 86.4271 130.785C86.878 131.21 87.0902 131.767 87.0902 132.378C87.0902 133.014 86.878 133.545 86.4271 133.996C85.9496 134.447 85.3927 134.66 84.7296 134.66C84.0665 134.66 83.5095 134.447 83.0321 133.996ZM91.5991 132.112L93.1109 130.202H93.9331V134.579H93.0048V131.661L91.5991 133.439L90.1933 131.661V134.579H89.265V130.202H90.0873L91.5991 132.112ZM100.06 130.202V134.579H99.1315V131.05H97.275V134.579H96.3467V130.202H100.06ZM106.107 130.202V134.579H105.179V131.05H103.905V131.555C103.905 132.165 103.879 132.67 103.8 133.093C103.72 133.518 103.64 133.836 103.508 134.049C103.375 134.288 103.216 134.447 103.057 134.527C102.871 134.632 102.686 134.66 102.474 134.66C102.367 134.66 102.288 134.66 102.182 134.632C102.102 134.632 102.023 134.606 101.97 134.579L101.89 134.553V133.678C101.996 133.704 102.102 133.731 102.209 133.731C102.367 133.731 102.5 133.678 102.606 133.598C102.713 133.492 102.792 133.279 102.871 132.935C102.925 132.616 102.978 132.139 102.978 131.555V130.202H106.107ZM109.449 133.731H111.81V134.579H108.521V130.202H111.73V131.05H109.449V131.927H111.253V132.775H109.449V133.731ZM114.886 130.202V132.112L116.61 130.202H117.697L116.08 132.006L117.83 134.579H116.743L115.443 132.696L114.886 133.332V134.579H113.958V130.202H114.886ZM121.544 130.096C121.783 130.096 121.994 130.149 122.206 130.202C122.419 130.255 122.578 130.334 122.71 130.414C122.843 130.493 122.975 130.6 123.056 130.679C123.161 130.759 123.241 130.838 123.295 130.892L123.347 130.971L122.763 131.581C122.763 131.555 122.737 131.528 122.71 131.502C122.684 131.475 122.631 131.422 122.578 131.37C122.498 131.289 122.419 131.236 122.339 131.157C122.233 131.104 122.127 131.077 121.994 131.024C121.836 130.971 121.702 130.945 121.544 130.945C121.146 130.945 120.801 131.077 120.509 131.37C120.243 131.635 120.111 131.979 120.111 132.378C120.111 132.802 120.243 133.147 120.509 133.413C120.801 133.678 121.146 133.836 121.544 133.836C121.702 133.836 121.862 133.81 121.994 133.757C122.154 133.704 122.259 133.678 122.366 133.598C122.472 133.545 122.552 133.492 122.605 133.413C122.684 133.359 122.737 133.306 122.763 133.253L122.817 133.2L123.4 133.784C123.374 133.81 123.347 133.863 123.321 133.89C123.295 133.943 123.214 133.996 123.082 134.102C122.975 134.208 122.843 134.288 122.71 134.367C122.605 134.447 122.419 134.527 122.206 134.579C121.994 134.632 121.783 134.66 121.544 134.66C120.881 134.66 120.324 134.447 119.846 133.996C119.395 133.545 119.156 133.014 119.156 132.378C119.156 131.767 119.395 131.21 119.846 130.785C120.324 130.334 120.881 130.096 121.544 130.096Z" fill="#D0B16F"/>
<path d="M6.53834 91.3037C6.53834 90.3485 6.43225 89.6321 6.19354 89.1545C5.98135 88.6504 5.71612 88.3319 5.42437 88.1728C5.15914 88.0136 5 87.934 5 87.9871H10.6759C10.6759 87.934 10.5433 88.0136 10.2516 88.1728C9.9598 88.3319 9.69457 88.6504 9.45586 89.1545C9.21715 89.6321 9.11106 90.3485 9.11106 91.3037V111.098H14.9462C16.0071 111.098 16.9354 110.859 17.7045 110.434C18.4737 109.983 19.0307 109.426 19.3755 108.736L18.7389 112.503H5C5 112.584 5.15914 112.53 5.42437 112.345C5.71612 112.185 5.98135 111.814 6.19354 111.284C6.43225 110.752 6.53834 109.956 6.53834 108.948V91.3037ZM21.7095 100.537C21.7095 98.0162 22.2665 95.7613 23.3274 93.7978C24.4148 91.8344 25.9531 90.2954 27.8893 89.2076C29.8521 88.1197 32.133 87.5625 34.6793 87.5625C36.8276 87.5625 38.8168 88.0401 40.7 88.9688C42.5566 89.8974 44.0419 91.3037 45.1823 93.1876C46.2964 95.0714 46.8798 97.3265 46.8798 99.9538C46.8798 102.474 46.3229 104.73 45.262 106.693C44.1745 108.683 42.6627 110.195 40.7 111.31C38.7373 112.398 36.4563 112.928 33.9101 112.928C31.7617 112.928 29.7725 112.477 27.8893 111.522C26.0328 110.594 24.5475 109.187 23.4069 107.303C22.293 105.419 21.7095 103.164 21.7095 100.537ZM44.0154 100.511C44.0154 98.3354 43.5645 96.3717 42.6892 94.6469C41.7874 92.8957 40.5674 91.516 39.0291 90.5342C37.4641 89.5525 35.7137 89.0484 33.751 89.0484C31.9739 89.0484 30.3826 89.4994 29.0033 90.4016C27.6241 91.3037 26.5367 92.6038 25.741 94.2489C24.9718 95.8938 24.574 97.8043 24.574 100.007C24.574 102.156 25.0249 104.119 25.9001 105.87C26.8019 107.622 28.022 108.974 29.5868 109.956C31.1251 110.938 32.8757 111.442 34.8384 111.442C36.6155 111.442 38.2068 110.991 39.586 110.089C40.9652 109.187 42.0527 107.913 42.8484 106.269C43.6175 104.597 44.0154 102.687 44.0154 100.511ZM74.5433 87.9871C74.2251 88.0666 73.9068 88.3319 73.5885 88.783C73.2437 89.2606 73.0845 90.0566 73.0845 91.2241V113.512L54.8632 92.2323V109.294C54.8632 110.434 55.0489 111.256 55.4468 111.708C55.8712 112.185 56.2424 112.451 56.6403 112.503H51.601C51.9457 112.451 52.2905 112.185 52.6353 111.708C52.9802 111.256 53.1393 110.434 53.1393 109.267V91.4364C53.1393 90.6404 52.874 89.8974 52.317 89.2341C51.7866 88.5708 51.097 88.1462 50.2483 87.9871H54.6776L71.3871 107.489V91.2241C71.3871 89.3933 70.777 88.3319 69.5305 87.9871H74.5433ZM96.08 110.514C93.852 111.841 90.855 112.503 87.1417 112.503H80.1132C80.1132 112.584 80.2458 112.53 80.5376 112.318C80.8293 112.106 81.068 111.734 81.3067 111.203C81.5454 110.646 81.6515 109.851 81.6515 108.816V91.2772C81.6515 90.3485 81.5454 89.6321 81.3067 89.1545C81.068 88.6504 80.8293 88.3319 80.5376 88.1728C80.2458 88.0136 80.1132 87.934 80.1132 87.9871H87.0887C90.7224 87.9871 93.6134 88.5708 95.7087 89.7648C97.5918 90.8261 99.0501 92.2323 100.058 94.0101C101.093 95.7874 101.597 97.8043 101.597 100.033C101.597 102.448 101.119 104.57 100.165 106.322C99.1836 108.099 97.8306 109.506 96.08 110.514ZM94.6743 91.3833C93.6399 90.6935 92.526 90.1893 91.3324 89.8709C90.1389 89.5791 88.7332 89.4198 87.0887 89.4198H84.1977V111.098H87.0887C89.0514 111.098 90.6428 110.912 91.8893 110.594C93.136 110.248 94.1969 109.744 95.1252 109.055C96.2656 108.152 97.1674 106.958 97.8041 105.499C98.4407 104.04 98.7589 102.341 98.7589 100.405C98.7589 98.3354 98.3875 96.5042 97.6714 94.9653C96.9288 93.3998 95.9474 92.2058 94.6743 91.3833ZM105.867 100.537C105.867 98.0162 106.424 95.7613 107.485 93.7978C108.572 91.8344 110.084 90.2954 112.047 89.2076C114.01 88.1197 116.264 87.5625 118.837 87.5625C120.985 87.5625 122.974 88.0401 124.831 88.9688C126.714 89.8974 128.199 91.3037 129.34 93.1876C130.454 95.0714 131.037 97.3265 131.037 99.9538C131.037 102.474 130.48 104.73 129.393 106.693C128.332 108.683 126.793 110.195 124.831 111.31C122.895 112.398 120.614 112.928 118.068 112.928C115.919 112.928 113.93 112.477 112.047 111.522C110.19 110.594 108.705 109.187 107.564 107.303C106.424 105.419 105.867 103.164 105.867 100.537ZM128.173 100.511C128.173 98.3354 127.722 96.3717 126.847 94.6469C125.945 92.8957 124.725 91.516 123.16 90.5342C121.622 89.5525 119.871 89.0484 117.908 89.0484C116.131 89.0484 114.54 89.4994 113.161 90.4016C111.782 91.3037 110.694 92.6038 109.898 94.2489C109.103 95.8938 108.732 97.8043 108.732 100.007C108.732 102.156 109.156 104.119 110.058 105.87C110.959 107.622 112.179 108.974 113.717 109.956C115.283 110.938 117.034 111.442 118.995 111.442C120.773 111.442 122.338 110.991 123.743 110.089C125.123 109.187 126.21 107.913 127.006 106.269C127.775 104.597 128.173 102.687 128.173 100.511ZM158.7 87.9871C158.382 88.0666 158.038 88.3319 157.719 88.783C157.401 89.2606 157.242 90.0566 157.242 91.2241V113.512L138.994 92.2323V109.294C138.994 110.434 139.207 111.256 139.604 111.708C140.002 112.185 140.4 112.451 140.798 112.503H135.758C136.103 112.451 136.422 112.185 136.766 111.708C137.111 111.256 137.297 110.434 137.297 109.267V91.4364C137.297 90.6404 137.031 89.8974 136.475 89.2341C135.918 88.5708 135.254 88.1462 134.406 87.9871H138.835L155.545 107.489V91.2241C155.545 89.3933 154.908 88.3319 153.688 87.9871H158.7Z" fill="white"/>
</svg>
